<svg version="1.1" xmlns="http://www.w3.org/2000/svg" viewBox="0 0 985.9375000000009 1065.9375000000002" width="2957.8125000000027" height="3197.812500000001">
  <!-- svg-source:excalidraw -->
  
  <defs>
    <style>
      @font-face {
        font-family: "Virgil";
        src: url("https://excalidraw.com/Virgil.woff2");
      }
      @font-face {
        font-family: "Cascadia";
        src: url("https://excalidraw.com/Cascadia.woff2");
      }
    </style>
  </defs>
  <g stroke-linecap="round" transform="translate(777.6250000000002 279.7499999999998) rotate(0 92.8125 39.25)"><path d="M0 0 C0 0, 0 0, 0 0 M0 0 C0 0, 0 0, 0 0 M-0.81 6.2 C2.11 3.86, 3.95 1.83, 5.3 0.31 M-0.54 6.51 C0.72 5.04, 2.44 3.87, 5.32 0.18 M1.5 11.94 C2.68 8.17, 4.64 8.57, 9.81 -0.36 M0.01 11.27 C4.26 8.36, 6.91 3.83, 10 -0.64 M-0.7 17.29 C4.68 13.93, 11.1 5.99, 15.51 0.59 M0.52 18.1 C3.62 14.38, 7.46 8.93, 14.65 0.79 M-0.9 23.47 C7.92 17.38, 10.77 8.83, 22.37 0.05 M-0.24 24.99 C7.3 15.63, 14.84 7.38, 21.7 0.65 M-1.89 31.58 C6.99 22.54, 14.62 12.23, 27 0.82 M-0.76 31.07 C7 21.87, 16.74 11.74, 26.18 -0.41 M-0.27 35.62 C13.05 24.33, 25.37 10.5, 30.97 0.41 M-1.19 37.21 C11.89 22.29, 25.39 9.59, 31.46 -0.03 M1.52 43.23 C10.31 31.33, 20.9 19.11, 36.84 -0.51 M-0.13 42.82 C8.02 33.18, 18.15 22.04, 37.12 0.47 M-1.36 48.45 C10.77 35.36, 19.01 26.29, 42.9 -1.65 M0.68 48.89 C16.97 30.42, 33.23 9.65, 43.43 0.8 M2.01 52.95 C10.25 44.18, 22.29 32.34, 47.4 1.44 M0.2 55.45 C17.71 34.04, 35.93 13.46, 47.35 0.5 M-1.47 62.54 C17.56 40.81, 33.71 20.44, 51.37 1.83 M0.07 60.35 C15.69 44.51, 30.32 25.06, 53.03 -0.37 M1.17 68.44 C16.28 49.64, 34.99 30.24, 58.78 1.74 M0.49 66.73 C22.09 41.82, 45.1 17.47, 57.82 -0.4 M0.51 71.97 C27.08 43.87, 51.83 14.68, 63.37 1.04 M-0.54 72.02 C14.91 54.34, 31.95 37.03, 62.78 -0.17 M0.93 80.64 C16.38 61.24, 28.47 45.1, 68.84 1.74 M0.74 78.24 C26 50.1, 50.47 22.13, 68.65 0.58 M4.67 79.04 C29.61 51.75, 53.12 26.4, 75.63 0.46 M5.69 79.16 C29.41 54.38, 50.8 28.36, 74.37 -0.37 M11.56 79.21 C29.34 60.52, 46.32 41.86, 81.17 1.01 M10.66 78.92 C33.67 52.05, 58.52 23.76, 79.07 1.1 M15.63 78.33 C36.95 51.5, 62.11 26.13, 86.63 -1.21 M15.49 79.95 C36.96 55.26, 57.19 32.54, 84.58 0.15 M22.69 77.18 C43.52 53.28, 64.81 28.49, 89.15 1.38 M22.69 77.7 C35.89 61.76, 51.52 44.44, 89.42 -0.26 M26.5 80.71 C47.22 59.49, 65.02 36.77, 96.6 0.98 M27.48 79.47 C53.51 48.51, 81.77 18.7, 95.32 -0.62 M31.56 78.49 C51 55.04, 71.14 32.84, 99.86 -1.06 M32.25 79.08 C58.12 48.2, 84 19.11, 101.19 -0.09 M37.37 77.26 C52.08 63.5, 67.28 46.18, 107.53 -1.76 M36.62 79.66 C60.34 52.01, 83.9 26.41, 105.65 0.18 M41.15 77.36 C65.39 52.79, 91.33 25.72, 110.18 0.02 M43.88 78.41 C63.83 56.99, 82.21 34.99, 110.99 -0.09 M46.1 77.31 C63.08 58.96, 81.81 41.13, 114.47 0.78 M49.03 79.32 C72.61 51.55, 98.23 22.79, 117.06 1.06 M52.18 78.24 C80.2 51.04, 103.68 22.01, 122.69 1.2 M53.25 77.94 C75.69 54.99, 96.21 28.87, 122.52 0.92 M60.31 80.44 C71.88 62.24, 90.29 43.53, 128.24 -1.19 M57.92 78.13 C84.19 49.15, 109.24 21.14, 126.16 1.11 M62.49 80.59 C86.07 52.72, 111.55 25.92, 133.77 1.31 M64.48 79.54 C85.49 54.81, 106.34 31.3, 132.67 -0.99 M69.33 80.5 C92.1 52.46, 113.38 29.92, 139.4 -0.97 M69.66 78.63 C92.09 51.08, 115.93 24.84, 136.71 0.58 M73.6 79.87 C101.17 47.98, 128.84 16.79, 141.51 1.43 M74.82 79.68 C87.8 62.99, 103.08 46.66, 143.39 -0.91 M80.29 77.55 C103.83 48.61, 130.66 19.16, 148.93 1.65 M79.73 78.26 C106.48 48.63, 132.61 19.23, 148.25 -0.16 M86.86 80.03 C109.37 52.66, 132.08 25.62, 153.76 0.91 M84.63 80 C102.2 61.1, 116.34 42.83, 153.79 -1.04 M90.03 77.93 C116.61 50.46, 142.88 18.01, 159.57 1.12 M90.72 79.32 C107.29 60.67, 122.08 41.69, 159.45 0.12 M93.99 78.53 C119.11 53.47, 139.66 29.74, 164.15 1.31 M96.1 78.23 C115.13 56.6, 135.13 34.59, 164.11 -0.69 M101.16 78.23 C115.05 61.99, 131.9 44.36, 167.79 2.16 M100.36 78.99 C126.77 51.09, 150.32 22.7, 170.1 -0.45 M104.47 79.08 C133.05 50.9, 158.16 19.24, 176.01 -1.53 M106.51 78.98 C132.77 48.28, 158.26 19.13, 175.7 -0.32 M110.04 77.27 C132.69 52.58, 155.42 29.22, 179.82 -0.29 M111.52 79.32 C133.55 55.58, 153.46 30.15, 179.12 1.11 M117.52 79.64 C135.08 57.83, 151.59 39.35, 186.46 -1.52 M116.28 79.74 C131.26 61.97, 144.96 47.44, 185.03 0.51 M122.77 80.14 C146.79 51.84, 167.3 22.65, 189.68 1.26 M122.16 79.24 C143.54 54.93, 163.21 31.76, 188.57 2.93 M126.14 80.4 C141.95 62.13, 158.12 44.03, 186.48 10.71 M126.94 78.88 C147.19 57.11, 165.56 34.65, 187.83 8.16 M131.21 78.17 C153.24 54.08, 175.26 29.25, 188.54 13.81 M133.39 78.54 C148.93 60.64, 163.28 43.55, 189.06 15.3 M137.05 79.84 C153.75 58.39, 173.01 38.87, 189.92 19.72 M137.17 79.65 C156.96 55.13, 178.12 33, 188.09 20.76 M144.96 76.94 C160.62 60.86, 176.56 39.88, 187.75 26 M143.44 77.92 C153.34 67.53, 161.76 58.36, 188.77 26.77 M146.73 78.65 C159.71 69.41, 167.65 56.71, 189.76 31.33 M148.76 78.15 C163.43 60.81, 177.97 43.81, 188.28 32.35 M155.38 80.28 C166.98 65.43, 174.45 55.91, 189.85 40.29 M153.66 78.92 C161.25 70.68, 168.19 62.53, 188.4 38.33 M157.41 79.8 C169.82 65.76, 179.28 56.07, 190.11 44.6 M158.61 79.37 C167.95 69.23, 177.12 57.9, 189.37 44.85 M163.57 78.28 C168.38 74.34, 177.04 65.93, 189.16 51.63 M164.53 77.96 C170.84 70.72, 176.73 64.12, 187.86 52.1 M169.07 80.48 C176.08 71.88, 184.57 64.51, 188.17 57.63 M170.78 79.19 C174.79 72.94, 180.47 65.64, 188.82 57.83 M176.39 79.27 C181.95 72.78, 183.27 66.55, 190.43 64.48 M175.66 78.36 C177.52 74.82, 180.32 72.21, 188.8 64.32 M179.91 79.62 C183.81 76.61, 185.33 73.03, 188.7 68.99 M180.49 78.53 C183.15 75.75, 186.14 71.6, 188.89 69.57" stroke="#228be6" stroke-width="0.5" fill="none"></path><path d="M0.62 -1.65 C74.4 -0.32, 145.43 1.7, 184.66 1.94 M-0.88 -0.96 C63.72 0.83, 127.64 1.63, 184.64 -0.81 M186.09 -1.09 C185.65 24.37, 184.46 48.85, 183.8 78.08 M184.92 -0.5 C186.87 16.01, 186.87 31.15, 184.82 77.64 M187.45 79.81 C125.33 78.59, 65.79 81.47, 1.04 77.09 M184.7 78.09 C111.03 77.25, 39.08 77.87, 0.99 78.41 M-1.29 77.33 C1.05 60.83, -1.55 39.71, 0.59 -1 M-0.34 78.55 C0.25 59.84, -0.22 39.4, -0.3 -0.75" stroke="#000000" stroke-width="1" fill="none"></path></g><g transform="translate(821.5000000000005 292.9999999999998) rotate(0 48 26)"><text x="48" y="18" font-family="Virgil, Segoe UI Emoji" font-size="20px" fill="#000000" text-anchor="middle" style="white-space: pre;" direction="ltr">lib version</text><text x="48" y="44" font-family="Virgil, Segoe UI Emoji" font-size="20px" fill="#000000" text-anchor="middle" style="white-space: pre;" direction="ltr">v2.0.0</text></g><g stroke-linecap="round" transform="translate(785.6250000000007 18.124999999999886) rotate(0 90 35.625)"><path d="M0 0 C0 0, 0 0, 0 0 M0 0 C0 0, 0 0, 0 0 M-0.98 6.57 C1.16 4.82, 1.97 4.12, 5.16 0.52 M0.13 6.63 C1.4 4.16, 4.08 1.43, 5.16 0.57 M0.56 10.65 C2.58 7.05, 7.5 3.13, 10.93 -0.6 M-0.44 12.48 C1.75 9.26, 4.15 7.18, 11.24 0.58 M0.73 16.91 C3.13 13.37, 9.04 6.49, 13.7 2.17 M-0.6 18.99 C3.94 13.65, 8.45 9.29, 15.86 1.21 M1.42 25.49 C6.67 16.56, 15.19 6.26, 23.14 -1.16 M-0.62 24.39 C8.73 16.3, 15.46 6.93, 22.14 0.43 M1.03 30.12 C6.04 22.49, 16.45 13.58, 26.76 -0.88 M-0.09 29.62 C6.29 23.64, 10.39 16.95, 26.06 0.53 M-1.7 38.07 C12.23 25.53, 23.8 11.41, 31.8 -1.49 M-0.38 37.2 C8.4 27.74, 16.41 16.69, 32.78 -0.04 M-0.88 43.29 C12.91 25.74, 27.94 11.08, 36.8 -0.51 M0.86 41.97 C14.31 25.98, 27.75 11.21, 37.18 -0.12 M-0.66 47.94 C13.02 33.32, 30.46 15.93, 41.62 0.71 M-0.65 49.78 C16.64 28.85, 34.92 9.8, 42.74 0.57 M2.13 56.37 C13.37 40.06, 28.44 23.1, 46.92 -1.71 M0.44 54.53 C16.07 37.12, 31.27 19.21, 47.92 -0.26 M1.45 60.36 C16.22 43.1, 31.92 22.73, 52.14 -0.98 M-0.59 60.62 C12.94 45, 28.48 29.82, 53.03 -1.03 M-0.57 69.17 C18.05 47.53, 36.85 26.82, 59.06 1.65 M-0.24 68.02 C15.44 51.01, 29.05 33.63, 58.59 0.03 M1.77 74.21 C22.7 46.12, 46.27 21.92, 65.75 -1.87 M1.48 72.14 C22.9 47.97, 45.07 22.26, 64.23 -0.71 M7.8 70.84 C25.11 52.52, 38.86 33.56, 70.08 -1.16 M6 72.75 C21.23 53.99, 37.07 36.52, 69.03 0.09 M12.79 73.68 C31.99 45.71, 53.96 22.49, 75.72 -2.13 M11.34 72.37 C29.01 50.01, 48.08 29.43, 74.45 -0.89 M15.73 70.48 C40 43.36, 62.34 20.25, 79.67 -1.76 M16.77 71.33 C40.93 45.5, 62.83 18, 78.65 0.73 M22.9 71.97 C42.81 47.89, 61.71 26.78, 86.2 1.18 M21.31 72.68 C39.98 51.96, 57.5 32.36, 85.4 -0.57 M25.92 73.06 C50.16 43.98, 73.86 18.81, 90.41 -0.64 M28.57 72.54 C40.62 56.15, 52.99 41.28, 90.42 0.16 M33.18 74.11 C47.79 56.39, 64.28 37.49, 96.2 -1.86 M33.12 72.54 C57.48 43.09, 82.18 13.53, 96.32 -1.29 M39.89 70.15 C60.62 46.57, 82.64 17.23, 99.78 0.84 M37.4 72.09 C57.75 50.04, 75.41 28.48, 100.89 0.07 M43.58 72.21 C62.08 53.51, 76.87 36.65, 107.64 -2.05 M44.06 72.87 C63.54 48.56, 84.63 26.36, 106.04 -1.17 M50.05 72.46 C65.64 53.43, 79.91 35.08, 112.09 0.43 M48.84 71.11 C70.86 46.44, 91.66 22.33, 112.14 -0.45 M52.94 73.55 C68.29 53.57, 86.54 36.1, 116.61 1.67 M52.97 72.03 C71.81 53.83, 87.02 35.35, 116.27 -0.14 M59.01 70.55 C72.45 57.28, 84.19 40.69, 122.57 -0.98 M59.36 72.93 C80.47 46.23, 102.97 20.21, 121.84 -0.86 M62.97 72.5 C82.95 51.65, 100.64 28.62, 128.08 -0.74 M64.26 71.81 C87.31 47.48, 109.82 19.71, 126.28 1.07 M70.22 71.87 C87.37 55.44, 101.53 36.88, 133.29 0.61 M68.95 72.04 C89.61 50.73, 106.84 28.85, 133.22 0.82 M74.25 70.58 C101.2 44.73, 125.86 16.55, 135.91 2.02 M75.91 71.43 C94.77 50.02, 114.16 27.94, 136.91 -0.6 M80.06 73.24 C96.79 49.34, 115.71 29.3, 141.21 0.35 M79.23 72.66 C98.62 52.07, 115.82 30.54, 143.06 0.02 M86.24 72.41 C103.55 49.2, 123.25 30.98, 149.51 -0.32 M85.46 71.58 C107.46 47.24, 127.85 22.63, 147.23 0.49 M92.42 73.86 C107.02 53.4, 123.49 35.95, 154.18 0.5 M90 71.66 C114.97 43.23, 139.85 14.75, 153.7 -0.42 M97.28 73.77 C116.44 50.21, 138.48 23.85, 157.14 1.03 M96 72.34 C112.09 53.47, 125.68 37.57, 157.87 -0.59 M102.07 72.06 C123.21 47.4, 142.89 22.37, 162.89 -1.57 M100.66 71.38 C114.38 57.31, 126.35 42.16, 165.07 -0.2 M108.57 73.54 C128.85 46.89, 152.06 20.92, 169.95 2.04 M106.18 71.26 C127.72 47.06, 148.67 23.63, 169.01 0.67 M110.65 73.27 C136.37 45.39, 157.88 16.54, 176.92 -1.34 M112.13 71.56 C129.87 52.8, 145.5 34.43, 174.63 0.41 M116.2 73.72 C129.95 56.9, 142 41.6, 181.96 1.78 M118.25 71.32 C134.94 51.97, 150.47 34.32, 180.43 0.23 M122.69 74.07 C139.63 52.02, 162.39 27.97, 178.85 7.61 M122.92 71.42 C137.41 54.64, 152.94 37.56, 179.51 7.36 M127.13 71.45 C142.71 54.32, 159.58 37.47, 179.57 10.51 M127.98 70.94 C143.39 54.62, 156.8 37.99, 180.93 11.53 M133.59 74.17 C148.15 56.75, 161.03 36.46, 181.3 18.55 M133.11 71.58 C145.59 58.05, 156.79 44.26, 179.63 17.75 M139.19 70.99 C152.36 53.16, 167.44 36.25, 181.05 25.48 M138.72 71.97 C150.55 57.35, 164.46 43.17, 179.9 23.34 M145.61 72.37 C156.52 57.04, 173.26 39.06, 179.09 32.05 M144.32 72.12 C157.42 55.35, 171.33 39.89, 179.74 30.35 M149.09 71.72 C156.4 60.5, 168.19 53.24, 180.38 35.91 M149.39 71.71 C157.83 63.98, 164.81 53.85, 179.11 36.66 M155.91 70.64 C163.9 59.69, 176.09 50.83, 181.3 41.15 M153.75 72.55 C165.14 61.57, 173.73 49.8, 179.56 42.62 M160.41 72.16 C167.43 66.35, 171.44 56.96, 180.41 47.84 M160.45 70.88 C167.25 64.83, 173.5 55.06, 179.89 49.68 M164.5 74.03 C170.61 65.6, 173.25 61.97, 179.88 53.96 M166.14 71.81 C169.4 66.36, 174.52 60.49, 180.38 55.49 M170.78 71.13 C174.27 67.91, 176.1 64.71, 180.67 60.83 M169.52 72.42 C174.59 68.41, 177.54 63.17, 179.38 60.51 M175.39 71.66 C176.33 70.24, 178.46 69.89, 180.17 67.22 M175.85 72.13 C177.29 70.11, 178.69 68.8, 179.98 67.69" stroke="#228be6" stroke-width="0.5" fill="none"></path><path d="M-0.56 1.8 C44.88 -0.1, 85.87 0.07, 179.69 -0.61 M-0.26 -0.68 C47.55 0.71, 95.32 0.5, 180.74 -0.49 M178.72 -1.92 C181.12 21.08, 181.51 38.47, 181.03 71.45 M180.6 -0.55 C179.66 28.44, 180.49 56.25, 179.19 71 M181.2 71.28 C139.04 68.86, 96.64 72.28, -1.26 69.42 M180.6 71 C121.57 69.82, 61.87 70.71, 0.23 72.19 M-0.33 71.07 C-0.39 54.23, -0.9 39.81, -1.76 1.73 M-0.83 70.87 C-0.55 49.9, 0.14 28.7, 0.75 -0.47" stroke="#000000" stroke-width="1" fill="none"></path></g><g transform="translate(793.5000000000007 27.124999999999886) rotate(0 81.5 26)"><text x="81.5" y="18" font-family="Virgil, Segoe UI Emoji" font-size="20px" fill="#000000" text-anchor="middle" style="white-space: pre;" direction="ltr">stored Datahike</text><text x="81.5" y="44" font-family="Virgil, Segoe UI Emoji" font-size="20px" fill="#000000" text-anchor="middle" style="white-space: pre;" direction="ltr">v1.0.0</text></g><g stroke-linecap="round" transform="translate(774.375 401.8750000000002) rotate(0 100.31250000000011 61.5625)"><path d="M0 0 C0 0, 0 0, 0 0 M0 0 C0 0, 0 0, 0 0 M-0.39 5.98 C1.14 5, 2.69 3.99, 4.49 -0.39 M-0.5 6.2 C0.89 4.26, 2.67 3.08, 5.04 0.04 M1.51 12.73 C3.68 8.5, 6.51 5.64, 10.19 -0.11 M-0.43 12.59 C4.06 8.63, 7.79 4.4, 11.11 -0.62 M-0.92 18.76 C4.15 13.84, 6.88 9.65, 14.45 0.24 M-0.13 18.95 C4.27 13.01, 9.94 7.42, 15.76 0.59 M0.17 23.86 C6.48 16.63, 14.09 7.3, 23.06 0.27 M0.6 24.42 C5.34 16.22, 12.08 11.19, 22.08 0.81 M1.98 31.6 C6.48 19.89, 17.32 10.52, 24.64 0.38 M-0.8 29.97 C9.39 21.41, 17.01 10.17, 25.68 -0.58 M-1.44 37.82 C9.88 25.05, 20.67 11.59, 32.48 1.89 M-1.04 36.54 C8.55 26.3, 17.38 16.29, 30.99 0.64 M-0.16 44.28 C8.94 33.87, 16.74 22.4, 35.94 0.35 M0.52 41.75 C8.71 32.52, 15.71 24.5, 37.83 -0.19 M-1.51 48.23 C17.55 29.74, 32.85 12.48, 42.43 -1.27 M-0.49 48.6 C14.44 32.28, 30.95 13.55, 42.19 -0.29 M-0.77 56.31 C16.21 35.34, 34.89 15.3, 48.9 0.73 M0.8 54.52 C18.67 33.78, 36.84 12.81, 46.7 0.97 M-1.68 61.9 C17.55 39.68, 32.45 23.27, 51.87 -0.06 M0.85 61.81 C19.64 39.94, 37.72 16.93, 53.46 0.42 M0.95 67.07 C15 48.51, 31.45 31.63, 58.9 1.2 M-0.07 66.7 C20.57 44.04, 41.26 20.64, 58.38 -0.48 M-0.04 72.05 C16.92 50.23, 39.85 29.8, 62.62 1.77 M-0.2 72.04 C15.73 56.02, 30.69 38.08, 64.14 0.65 M-1.34 80.81 C15.22 63.28, 28.51 44.75, 68.21 0.61 M-0.68 79.88 C27.65 50.02, 54.38 18.2, 68.49 -0.45 M0.17 86.99 C22.38 60.69, 45.04 33.38, 75.4 -0.39 M0.73 84.62 C19.31 61.81, 41.57 37.91, 75.15 -0.33 M-1.1 91.18 C32.7 54.21, 64.61 17.23, 77.98 0.88 M-0.02 91.37 C26.24 60.83, 53.05 31.25, 80.21 0.56 M-2.06 98.92 C17.88 76.25, 33.5 55.88, 85.79 -0.04 M-1.06 97.07 C29.59 62.95, 58.96 29.33, 84.97 0.22 M-0.23 102.18 C28.57 70.11, 56.84 36.22, 88.24 -0.91 M1.12 103.14 C30.7 68.43, 63.39 33.73, 90.31 -0.5 M1.1 108.91 C25.16 78.41, 53.94 49.54, 96.26 0.46 M-0.76 110.08 C21.14 86.29, 40.15 62.96, 95.62 0.46 M2.21 116.96 C26.72 82.99, 53.31 55.37, 101.87 -0.55 M-0.47 114.6 C35.09 75.03, 68.46 37.36, 101.11 0.76 M-1.6 123.4 C34.15 80.99, 71.63 39.95, 108.13 -2.12 M0.04 122.03 C23.14 93.43, 46.56 67.25, 106.71 0 M4.03 123.49 C33.64 88.18, 69.18 49.51, 112.65 1.27 M1.53 124.36 C42.69 81.32, 82.03 35.15, 110.47 0.16 M9.98 126.17 C48.8 80.31, 85.16 34.82, 116.95 0.84 M7.84 124.95 C34.28 95.79, 61.51 64.33, 116.75 0.64 M14.5 123.63 C35.4 99.39, 59.28 72.03, 121.23 -1 M13.59 125.15 C36.73 99.67, 61.12 72.79, 121.86 0.96 M17.74 123.2 C45.99 93.3, 74.42 57.97, 127.13 -1.14 M19.59 125.37 C51.17 87.43, 83.98 50.86, 127.76 -0.66 M22.68 123.69 C60.59 81.76, 100.62 38.42, 131.13 -1.79 M22.66 124.51 C49.05 94.03, 77.51 63.77, 132.26 -0.14 M28.42 125.33 C64 84.32, 102.73 40.98, 135.97 -1.18 M27.77 125.03 C67.72 80.23, 105.43 37.16, 137.38 0.79 M33.02 123.31 C63.72 94.57, 90 62.66, 144.74 -0.39 M33.77 125.61 C70.59 83.29, 107.48 40.99, 142.25 -1.01 M40.23 125.25 C65.28 97.52, 90.48 64.96, 148.3 1.97 M38.99 125.8 C74.28 85.22, 108.55 45, 147.46 0.32 M44.86 125.24 C83.51 81.25, 124.57 35.07, 155.33 -1 M45.52 125.07 C79.23 87.23, 114.19 49.31, 153.96 -0.06 M48.28 125.05 C86.14 82.13, 122.76 40.86, 159.83 0.72 M49.5 125.25 C75.63 94.82, 100.7 66.86, 159.41 0.74 M56.41 123.38 C89.89 85.83, 124.78 48.31, 163.06 -0.66 M56.07 124.9 C93.91 82.13, 131.23 38.97, 165.07 -0.3 M59.23 125.16 C83.1 99.8, 104.77 73.93, 169.14 -1.45 M59.72 125.66 C94.27 86.97, 126.47 50.91, 170.19 0.27 M64.75 126.73 C98.45 90.97, 129.32 51.93, 174.95 -1.29 M67.15 124.61 C104.79 81.1, 143.54 37.18, 174.85 0.73 M70.58 125.15 C108.38 83.98, 145.59 41.43, 181.69 2.12 M71.66 124.71 C98.15 92.65, 126.15 61.53, 180.36 0.58 M77.84 123.42 C100.81 96.74, 126.36 67.48, 184.88 -1.71 M76.04 125.1 C98.99 99.65, 120.89 72.58, 186.12 -1.09 M82.74 123.74 C106.64 94.12, 133.02 65.4, 189.82 1.18 M80.89 125.54 C123 78.93, 165.08 31.1, 190 0.78 M86.52 124.73 C111.66 97.43, 136.18 67.12, 197.63 -1.58 M87.58 124.73 C119.97 87.56, 152.59 49.99, 197.24 -0.43 M90.98 126.73 C122.73 90.19, 151.22 56.56, 200.74 0.61 M92.55 124.73 C124.21 88.79, 158.78 50.1, 200.78 -0.6 M96.49 125.02 C130.62 87.01, 165.24 46.44, 202.95 5.32 M98.2 125.29 C138.01 81.45, 177.07 35.85, 200.27 6.26 M101.45 127.08 C127.48 95.11, 153.37 64.6, 201.37 13.25 M103.32 126.28 C123.69 101.84, 142.25 80.07, 200.77 13.26 M108.33 125.82 C140.22 86.69, 174.46 48.43, 200.67 20.07 M107.87 124.01 C141.1 87.75, 173.46 50.58, 202.01 17.66 M115.16 124.85 C140.98 93.41, 169.24 62.86, 200.49 24.66 M113.45 125.65 C145.94 88.83, 177.57 50.76, 200.56 24.19 M117.51 123.75 C139.45 100.3, 158.84 77.78, 200.77 31.08 M120.12 125.56 C138.19 103.61, 156.56 81.73, 202.13 30.14 M124.02 127.25 C148.72 96.82, 178.7 63.34, 201.27 37.85 M124.77 125.71 C147.36 100.42, 169.26 73.85, 201.85 37.8 M130.37 126.57 C155.05 96.42, 178.92 70.29, 198.87 43.92 M130.04 124.04 C145.25 108.1, 159.48 90.44, 200.59 43.52 M134.79 124.6 C159.8 95.84, 188.33 63.43, 202.42 50.19 M134.66 124.8 C157.24 99.14, 180.27 72.48, 200.55 48.37 M139.44 125.93 C160.38 102.33, 178.04 80.07, 199.44 57.03 M139.65 125.74 C151.09 110.28, 163.54 95.88, 200.92 54.79 M145.13 126.34 C160.25 109.02, 174.07 90.51, 201.53 62.22 M146.05 124.68 C161.79 107.73, 177.02 89.47, 202.12 61.65 M150.14 126.33 C171.48 104.51, 190.64 81.94, 199.83 66.25 M150.48 126.15 C165.53 109.68, 178.78 92.5, 200.19 66.67 M155.55 125.05 C169.64 108.92, 182.61 95.71, 202.39 74.3 M155.45 124.53 C174.12 105.42, 191.91 85.8, 200.96 73.55 M160.76 125.65 C173.99 108.85, 190.13 92.76, 200.94 77.76 M161.67 126.43 C171.07 114.24, 181.38 101.57, 201.74 78.54 M165.45 124.43 C175.81 117.26, 184.06 105.76, 201.66 87.7 M166.94 125.01 C178.03 113, 187.92 101.24, 200.97 85.16 M173.13 124.16 C182.04 115.58, 189.63 101.59, 202.55 92.89 M172.55 126.43 C180.15 116.42, 189.45 106.23, 200.44 91.22 M177.1 123.29 C184.17 115.98, 194.74 107.24, 200.89 97.05 M178.13 124.17 C182.45 119.76, 186.9 114.11, 201.66 97.29 M183.97 125.23 C186.93 117.97, 192.56 115.07, 202.63 104.84 M182.04 125.45 C187.11 119.96, 191.46 114.13, 200.07 103.73 M187.65 123.58 C191.05 120.69, 194.18 119.1, 201.16 111.36 M188.23 125.54 C191.5 122.25, 194 119.14, 200.74 109.41 M192.94 126.6 C196.97 122.26, 199.41 119.51, 200.4 115.95 M192.8 125.9 C195.18 123.68, 196.92 121.24, 200.35 116.31 M198.39 125.3 C199.21 124.39, 200.39 123.06, 201.55 122.17 M198.56 124.84 C199.53 124.11, 200.67 122.83, 201.37 122.1" stroke="#228be6" stroke-width="0.5" fill="none"></path><path d="M1.13 -0.87 C61.48 0.44, 126.09 -2.43, 201.82 0.62 M-0.24 -0.62 C59.09 1.34, 118.57 1.98, 200.16 -0.24 M202.5 0.69 C200.29 35.54, 198.65 72.32, 201.45 122.66 M200.71 -0.61 C200.63 35.88, 202.21 71.82, 200.63 123.78 M201.84 124.58 C156.34 120.86, 111.44 121.79, -1.7 121.58 M200.43 122.76 C131.38 123.59, 63.5 124.25, -0.68 123.2 M-1.45 122.92 C-0.09 82.29, 0.41 44.14, -0.61 0.4 M-0.48 122.22 C-0.21 97.25, -0.15 70.8, 0.03 -0.37" stroke="#000000" stroke-width="1" fill="none"></path></g><g transform="translate(783.5625000000002 404.8125000000002) rotate(0 93 13)"><text x="93" y="18" font-family="Virgil, Segoe UI Emoji" font-size="20px" fill="#000000" text-anchor="middle" style="white-space: pre;" direction="ltr">compatible versions</text></g><g transform="translate(795.625 433.5000000000002) rotate(0 78.5 39)"><text x="0" y="18" font-family="Virgil, Segoe UI Emoji" font-size="20px" fill="#000000" text-anchor="start" style="white-space: pre;" direction="ltr">v2.0.0 -&gt; v1.9.0</text><text x="0" y="44" font-family="Virgil, Segoe UI Emoji" font-size="20px" fill="#000000" text-anchor="start" style="white-space: pre;" direction="ltr">v2.0.0 -&gt; v1.8.0</text><text x="0" y="70" font-family="Virgil, Segoe UI Emoji" font-size="20px" fill="#000000" text-anchor="start" style="white-space: pre;" direction="ltr">v1.1.0 -&gt; v1.0.0 </text></g><g stroke-linecap="round" transform="translate(775.3125000000007 567.1875) rotate(0 100.31250000000011 73.75)"><path d="M0 0 C0 0, 0 0, 0 0 M0 0 C0 0, 0 0, 0 0 M-0.81 5.62 C1.79 3.34, 3.09 2.01, 5.33 -0.31 M-0.18 6.79 C2.17 3.81, 3.76 1.56, 5.15 0.55 M-0.35 13.61 C3.22 7.9, 6.41 7.37, 11.64 1.48 M0.35 11.91 C3.93 8.05, 8.06 3.56, 10.36 0.26 M1.05 19.13 C2.91 11.81, 8.02 7.89, 13.94 1.79 M0.1 18.35 C4.71 12.58, 8.95 8, 15.61 -0.23 M-0.89 23.78 C5.2 20.24, 7.87 13.74, 21.3 -0.72 M1.15 23.84 C5.8 17.65, 11.84 11.29, 21.85 0.74 M-0.61 28.79 C5.07 22.38, 13.2 16.04, 24.77 0.04 M-0.04 30.48 C8.14 22.21, 13.65 13.28, 25.88 -0.08 M1.66 38.59 C8.41 26.95, 16.83 18.8, 29.91 0.64 M-0.15 36.19 C12.15 22.99, 23.59 8.6, 32.1 -0.94 M1.8 43.52 C10.69 30.23, 21.75 16.93, 35.75 -1.47 M1.08 42.97 C13.65 25.18, 28.82 8.95, 37.25 0.97 M-2.12 50.01 C14.72 28.35, 31.31 11.34, 44.11 -1.97 M0.87 49.12 C16.64 30.63, 31.64 10.64, 41.6 -0.49 M-1.32 55.4 C15.71 34.05, 30.91 16.18, 46.28 0.35 M0 54.02 C17.42 33.95, 33.88 15.64, 47.76 -0.37 M-1.48 61.89 C9.87 46.3, 23.53 33.24, 52.31 1.55 M-0.41 60.1 C12.53 46.96, 22.34 35.5, 53.89 -0.71 M-2.21 67.29 C22.88 42.02, 46.79 14.59, 57.76 -1.4 M-0.37 67.59 C21.33 41, 45.34 15.99, 58.46 -0.41 M1 71.31 C21.06 50.49, 37.83 29.12, 64.93 -0.7 M1.06 72.81 C24.13 45.62, 47.5 19.59, 63.51 0.61 M-1.16 77.78 C23.99 51.77, 45.07 26.96, 69.61 0.36 M-0.2 80.39 C14.54 63.26, 29.18 46.75, 69.39 -0.44 M0.72 85.38 C23.89 56.51, 47.48 31.47, 74.36 1.36 M-0.67 85.98 C15.55 68.17, 30.92 50.32, 74.02 0.66 M1.58 89.71 C30.58 55.26, 61.73 18.79, 79.23 -1.26 M-0.57 92.35 C19.25 70.53, 37 50.28, 79.61 -0.76 M-1.57 97.94 C16.16 78.42, 35.03 58.59, 87.02 -0.17 M-1.21 98.05 C32.38 59.21, 65.69 21.66, 85.96 -0.35 M0.41 103.17 C23.05 76.16, 49.02 49.36, 90.03 0.83 M1.05 103.69 C33.46 64.81, 66.61 24.86, 89.16 -0.66 M-1.16 110.58 C19.41 84.8, 40.95 61.07, 95.31 0.8 M0.8 110.22 C29.25 75.83, 57.66 42.96, 94.88 -1.22 M-0.24 116.26 C36.99 72.26, 72.26 33.54, 99.41 -0.29 M0.21 115.62 C28.1 84.28, 55.36 53.41, 101.08 -0.44 M-1.29 121.15 C31.81 85.31, 65.86 46.27, 105.63 0.37 M-0.25 120.95 C22.97 96.26, 44.31 68.72, 105.32 0.26 M1.35 129.82 C39.5 81.49, 79.88 31.77, 110.77 -1.51 M-1.2 129.08 C27.38 96.78, 53.63 67.39, 111.43 0.6 M1.45 132.73 C38.31 89.63, 79.08 45.66, 117.73 1.39 M-0.31 134.93 C34.15 95.13, 66.28 58.61, 116.18 0.05 M-1.08 140.45 C34.4 97.78, 72.31 53.74, 121.53 -1.74 M-0.31 139.77 C35.41 101.14, 72.37 60.21, 121.25 0.16 M0.45 146.43 C31.4 108.14, 64.84 70.98, 127.35 -1.57 M-0.35 145.88 C50.6 90.04, 100.88 32.37, 127.31 0.83 M0.84 149.97 C36.81 108.03, 74.74 66.6, 131.1 -1.89 M3.37 149.63 C49.22 94.97, 94.54 42.75, 132.59 -1.04 M6.35 149.03 C49.71 100.54, 89.75 53.6, 138.21 -1.64 M6.92 150.2 C49.85 105.42, 89.38 57.62, 137.61 0.56 M12.76 150.44 C50.62 109.85, 86.22 64.79, 144.87 -0.87 M12.66 149.83 C41.77 114.53, 73.82 78.49, 142.49 0.69 M16.61 150.15 C57.14 105.08, 94.93 63.02, 148.74 1.26 M18.59 150.11 C57.86 103.68, 97.42 59.8, 147.63 -0.54 M25.21 151 C52.75 113.4, 80.71 82.94, 154.25 0.42 M24.23 149.63 C61.09 108.06, 96.63 68.66, 153 0.05 M27.36 148.68 C54.46 120.31, 84.09 85.64, 159.33 1.22 M29.43 150.09 C74.04 99.97, 118.34 50.54, 158.9 0.71 M34.61 149.75 C74.14 101.07, 114.7 53.86, 164.66 -0.92 M33.61 150.22 C69.34 107.51, 106.29 65.56, 165.17 0.75 M40 149.69 C73.32 111.94, 103.99 73.08, 168.4 -1.66 M40.5 149.85 C78.27 107.44, 115.67 63.83, 169.98 0.54 M42.7 151.54 C78.8 111.23, 113.03 72.86, 175.49 -1.81 M44.71 150.58 C93.7 93.34, 142.34 38.92, 175.05 -0.51 M49.95 148.28 C81.97 109.62, 114.99 73.68, 180.35 -1.28 M49.83 150.08 C91.9 99.85, 135.39 51.51, 180.41 0.12 M55.19 148.96 C88.64 111.96, 122.85 74.81, 184.15 -1.15 M54.39 150.38 C105.14 93.36, 154.43 35.42, 185.67 -0.02 M62.6 149.54 C107.1 92.27, 154.88 36.25, 189.58 -1.56 M60.48 150.5 C103.8 99.54, 146.02 50.79, 190.74 -0.32 M65.85 150.85 C92.61 118.38, 119.88 85.93, 198.05 0.16 M66.52 150.59 C93.76 120.08, 120.93 86.84, 197.1 -1.09 M73.37 148.58 C104.96 110.22, 138.05 67.73, 200.5 -0.4 M70.48 149.81 C104.34 110.78, 138.59 73.86, 200.52 0.42 M75.08 151.3 C116.8 104.36, 157.99 56.55, 200.69 6 M76.66 150.41 C114.09 108.23, 152.02 66.3, 200.46 6.79 M83.66 150.47 C116.03 110.74, 150.87 71.05, 200.37 11.13 M82.9 149.7 C127.13 98.27, 172.09 47.4, 201.14 13.36 M85.28 150.42 C122.17 108.7, 159.21 66.14, 200.8 17.95 M87.36 150.05 C127.33 104.3, 166.36 58.4, 201.13 18.8 M92.87 150.33 C123.88 112.06, 156.27 75.43, 201.4 25.53 M91.77 148.88 C122.54 115.27, 150.38 82.53, 199.96 24.12 M96.86 150.29 C136.3 102.07, 176.41 60.11, 200.35 31.83 M98.17 150.7 C137.66 102.17, 180.63 53.88, 200.73 31.37 M102.42 149.23 C128.36 123.37, 149 95.78, 201.34 35.66 M104.14 149.06 C142.95 104.08, 181.46 59.95, 200.86 37.67 M108.22 151 C128.62 124.37, 148.05 101.83, 202.12 43.48 M107.62 150.58 C140.08 113.69, 172.98 74.57, 200.67 43.96 M115.7 150.28 C147.16 111.94, 177.92 72.55, 200.6 47.6 M114.06 148.94 C143.91 115.24, 174.39 81.47, 201.4 49.21 M119.78 150.66 C138.81 127.17, 161.5 105.05, 200.81 56.48 M119.27 148.88 C138.7 126.15, 159.02 103.51, 201.29 54.75 M126.13 150.57 C143.79 127.86, 165.28 103.17, 201.58 61.45 M124.58 150.21 C151.38 119.06, 180.38 86.13, 202.12 60.94 M129.93 149.35 C155.63 121.14, 179.72 92.2, 199.18 66.7 M129.66 149.81 C157.23 119.38, 185.76 87.49, 201.99 67.21 M137.11 149.19 C159.73 121.28, 181.39 95.24, 200.03 72.06 M135.74 149.59 C148.74 133.12, 163.45 115.53, 199.91 74.81 M139.09 149.17 C161.32 123.56, 185.26 98.43, 202.63 79.21 M140.35 150.57 C163.94 122.8, 188.88 95.2, 201.82 79.04 M146.05 151.23 C168.93 123.58, 191.58 99.74, 199.67 86.01 M146.59 148.78 C156.73 135.44, 168.97 122.06, 200.64 85.53 M149.66 150.21 C167.4 129.73, 189.32 106.07, 202.57 93.12 M149.87 149.36 C171.42 127.5, 191.58 103.61, 200.83 90.94 M156.35 147.79 C168.76 134.03, 178.91 123.02, 200.26 98.15 M157.17 148.47 C170.43 134.82, 183.18 120.15, 201.18 97.04 M162.05 150.57 C175.37 134.29, 192.43 118.71, 199.75 106.27 M161.78 149.38 C169.74 140.41, 179.33 131.29, 201.4 103.37 M164.77 148.72 C174.75 137.43, 184.12 129.97, 200.2 108.57 M165.88 149.14 C177.36 137.13, 189.07 123.26, 202.1 109.56 M170.66 150.33 C180.67 140.56, 186.72 131.35, 202.89 116.25 M172.62 148.85 C183.35 137.65, 192.53 125.22, 200.89 115.53 M176.02 151.6 C184.43 140.55, 194.72 130.7, 199.89 123.38 M176.08 149.96 C183.84 141.07, 191.53 133.49, 200.93 122.28 M183.9 147.6 C189.19 145.31, 191.53 138.31, 200.73 128.91 M181.93 148.96 C186.68 144.03, 192.71 138.31, 201.69 127.87 M186.85 150.29 C192.55 144.67, 195.12 141.05, 201.08 135.41 M188.15 149.41 C191.33 146.33, 193.72 142.37, 201.57 134.16 M192.64 150.09 C195.17 146.11, 199.03 143.09, 200.9 139.78 M193.9 149.76 C195.47 146.83, 196.8 145.14, 201.6 140.84 M197.99 150.27 C199.28 148.58, 200.62 147.36, 201.06 146.53 M198.29 149.93 C198.73 149.26, 199.26 148.82, 200.93 146.86" stroke="#228be6" stroke-width="0.5" fill="none"></path><path d="M-1.21 1.26 C57.66 1.15, 116.31 2.76, 198.83 -1.58 M0.56 -0.12 C78.28 -1.33, 157.6 -1.37, 201.17 -0.37 M201.51 -0.71 C199.45 51.58, 199.22 106.84, 199.15 146.59 M200.76 0.8 C200.55 52.07, 201.64 104.65, 200.79 147.77 M200.36 148.31 C145.79 147.89, 86.87 147.52, 1.48 147.89 M200.34 146.69 C134.51 145.37, 69.59 146.32, 0.65 147.02 M1.34 145.78 C1.02 106.91, -0.2 60.98, -1.27 -0.77 M-0.63 146.52 C0.03 103.84, 0.72 59.56, 0.8 -0.03" stroke="#000000" stroke-width="1" fill="none"></path></g><g transform="translate(781.5000000000007 570.125) rotate(0 96 13)"><text x="96" y="18" font-family="Virgil, Segoe UI Emoji" font-size="20px" fill="#000000" text-anchor="middle" style="white-space: pre;" direction="ltr">available migrations</text></g><g transform="translate(787.5000000000005 602.2500000000001) rotate(0 78 52)"><text x="0" y="18" font-family="Virgil, Segoe UI Emoji" font-size="20px" fill="#000000" text-anchor="start" style="white-space: pre;" direction="ltr">v0.5.0 -&gt; v1.0.0</text><text x="0" y="44" font-family="Virgil, Segoe UI Emoji" font-size="20px" fill="#000000" text-anchor="start" style="white-space: pre;" direction="ltr">v1.0.0 -&gt; v2.0.0</text><text x="0" y="70" font-family="Virgil, Segoe UI Emoji" font-size="20px" fill="#000000" text-anchor="start" style="white-space: pre;" direction="ltr">v.1.1.0 -&gt; v2.0.0</text><text x="0" y="96" font-family="Virgil, Segoe UI Emoji" font-size="20px" fill="#000000" text-anchor="start" style="white-space: pre;" direction="ltr">v1.9.0 -&gt; v2.0.0</text></g><g stroke-linecap="round" transform="translate(530.0000000000005 156.25) rotate(0 42.5 35.9375)"><path d="M8.01 16.24 C8.01 16.24, 8.01 16.24, 8.01 16.24 M8.01 16.24 C8.01 16.24, 8.01 16.24, 8.01 16.24 M2.28 27.91 C9.15 18.97, 18.67 10.43, 22.94 6.93 M3.51 28.83 C9.9 21.7, 14.89 13.36, 22.64 4.67 M2.81 35.94 C7.12 27.07, 11.99 21.28, 30.95 2.19 M1.67 34.1 C13.31 23.91, 22.82 11.56, 28.62 3.47 M1.83 40.68 C10.74 29.26, 18.13 20.58, 33.61 4.58 M4.26 40.1 C12.84 29.72, 21.5 18.01, 34.54 3.28 M3.43 45.03 C15.41 33.65, 25.94 21.63, 37.88 3.84 M4.56 44.99 C12.68 33.77, 21.93 24.55, 40.21 4.46 M3.58 49.7 C17.35 37.31, 29.29 25.82, 45.88 4.33 M5.88 49.63 C14.72 39.86, 22.23 30.06, 44.82 2.77 M7.43 56.33 C16.83 41.14, 30.16 26.34, 52.32 4.02 M4.93 54.57 C22.04 35.67, 39.37 17.82, 52.28 2.46 M10.63 57.36 C20.18 45.04, 31.23 32.92, 55.15 4.06 M9.08 58 C19.15 44.88, 30.7 33.23, 55.98 3.69 M10.81 58.45 C22.92 47.31, 31.95 37.59, 58.13 5.17 M11.88 60.1 C31.35 36.89, 50.75 15.07, 59.29 5.06 M16.73 63.32 C26.28 46.46, 40.37 33.87, 62.89 8.21 M16.2 61.97 C34.44 40.55, 54.05 19.99, 63.63 6.1 M20.41 62.85 C36.47 45.63, 49.89 27.46, 66.33 9.17 M18.36 64.66 C38.12 42.18, 55.42 22.86, 67.87 8.29 M21.69 65.76 C39.94 48.56, 52.9 31.34, 73.83 9.16 M22.68 67.89 C34.59 52.77, 47.74 37.81, 71.57 9.03 M26.32 68.92 C40.08 52.03, 51.4 37.5, 72.71 13.93 M25.57 68.31 C44.58 46.23, 65.57 23.26, 74.41 13.18 M29.24 70.07 C38.59 59.98, 47.97 50.51, 76.77 16.09 M30.84 70.27 C42.86 54.82, 56.7 39.24, 76.73 17.29 M35.27 71.06 C51.28 51.3, 71.46 32.55, 79.7 18.61 M34.35 71.06 C47.59 56.01, 59.36 43.46, 78.96 19.06 M37.8 71.4 C53.92 59.03, 63.19 44.68, 80.43 25.38 M38.73 72.41 C48.34 59.78, 58.95 50.04, 80.94 23.92 M42.72 71.69 C57.74 56.27, 72.38 36.97, 81.71 26.12 M45.28 71.98 C55 59.2, 67.77 45.67, 82.54 27.95 M47.16 71.67 C61.49 58.47, 73.8 44.88, 84.25 31.21 M48.74 73.38 C61.52 59.31, 71.09 46.13, 83.75 32.71 M55.39 69.19 C61.43 63.75, 69.21 58.47, 83.21 37.88 M57.17 71.11 C64.48 61.15, 71.67 53.59, 83.22 39.42 M62.32 66.5 C70.75 60.79, 77.89 53.04, 85.67 45.73 M63.48 66.92 C72.14 59.41, 79.68 50.64, 83.7 44.48" stroke="#fab005" stroke-width="0.5" fill="none"></path><path d="M26.78 2.39 C33.19 -0.35, 42.97 0.18, 50.31 1.23 C57.65 2.28, 65.4 4.42, 70.82 8.7 C76.24 12.97, 80.69 20.61, 82.85 26.85 C85.02 33.1, 86.09 40.1, 83.81 46.16 C81.53 52.21, 75.4 59.1, 69.17 63.21 C62.94 67.31, 54.01 70.06, 46.43 70.79 C38.86 71.52, 30.53 70.23, 23.72 67.58 C16.92 64.93, 9.44 60.43, 5.6 54.89 C1.75 49.35, 0.29 40.74, 0.65 34.35 C1.01 27.96, 3.31 21.87, 7.75 16.53 C12.2 11.19, 23.48 4.75, 27.33 2.31 C31.19 -0.13, 30.7 1.21, 30.89 1.89 M24.06 4.57 C30.34 1.39, 40.8 -1.38, 48.21 -0.84 C55.62 -0.3, 62.84 3.41, 68.5 7.81 C74.17 12.2, 79.47 19.42, 82.22 25.53 C84.96 31.64, 86.66 38.47, 84.96 44.47 C83.26 50.48, 77.78 57.05, 72.02 61.58 C66.27 66.11, 58.15 70.4, 50.42 71.65 C42.69 72.9, 32.64 71.9, 25.65 69.08 C18.65 66.27, 12.65 60.31, 8.47 54.76 C4.29 49.21, 0.7 41.88, 0.57 35.78 C0.43 29.69, 3.79 23.32, 7.66 18.19 C11.52 13.06, 21.11 7.33, 23.77 5.01 C26.42 2.68, 23.42 4.03, 23.61 4.22" stroke="#000000" stroke-width="1" fill="none"></path></g><g stroke-linecap="round"><g transform="translate(574.3887216205505 238.24011755201101) rotate(0 -1.4865023493374565 23.12116272534476)"><path d="M-0.14 -0.66 C-0.59 7.34, -1.57 39.17, -1.8 46.9 M-1.67 1.6 C-2.38 9.37, -2.75 37.7, -2.83 45.25" stroke="#000000" stroke-width="1" fill="none"></path></g><g transform="translate(574.3887216205505 238.24011755201101) rotate(0 -1.4865023493374565 23.12116272534476)"><path d="M-11.51 23.24 C-6.25 31.98, -5.3 38.2, -4.17 46.03 M-11.22 23.05 C-8.88 29.46, -5.65 37.24, -2.06 44.53" stroke="#000000" stroke-width="1" fill="none"></path></g><g transform="translate(574.3887216205505 238.24011755201101) rotate(0 -1.4865023493374565 23.12116272534476)"><path d="M4.23 23.45 C3.54 32.09, -1.46 38.23, -4.17 46.03 M4.53 23.26 C2.04 29.71, 0.45 37.42, -2.06 44.53" stroke="#000000" stroke-width="1" fill="none"></path></g></g><g transform="translate(551.8750000000005 178.4999999999999) rotate(0 22 13)"><text x="0" y="18" font-family="Virgil, Segoe UI Emoji" font-size="20px" fill="#000000" text-anchor="start" style="white-space: pre;" direction="ltr">read</text></g><g stroke-linecap="round"><g transform="translate(575.6559077847196 445.508919532738) rotate(0 -0.815283455676763 51.88632249757126)"><path d="M0.5 -0.22 C0.12 17.01, -0.98 86.36, -1.25 103.92 M-0.69 -1.38 C-1.31 15.96, -1.96 87.74, -2.13 105.15" stroke="#000000" stroke-width="1" fill="none"></path></g><g transform="translate(575.6559077847196 445.508919532738) rotate(0 -0.815283455676763 51.88632249757126)"><path d="M-12.49 77.07 C-9.08 88.24, -3.22 96.86, -0.45 106.74 M-12.76 76.82 C-9.42 83.16, -6.92 91, -3.11 105.18" stroke="#000000" stroke-width="1" fill="none"></path></g><g transform="translate(575.6559077847196 445.508919532738) rotate(0 -0.815283455676763 51.88632249757126)"><path d="M8.04 77.27 C3.49 88.45, 1.41 96.99, -0.45 106.74 M7.76 77.02 C5.82 83.49, 3.04 91.28, -3.11 105.18" stroke="#000000" stroke-width="1" fill="none"></path></g></g><g stroke-linecap="round" transform="translate(497.50000000000045 301.875) rotate(0 78.75 65)"><path d="M-0.12 66.14 C-0.12 66.14, -0.12 66.14, -0.12 66.14 M-0.12 66.14 C-0.12 66.14, -0.12 66.14, -0.12 66.14 M2.02 69.65 C8.47 62.27, 13.04 56.82, 18.49 48.69 M3.86 67.99 C7.75 63.64, 13.7 57.05, 19.93 49.02 M7.66 72.31 C13.52 62.33, 20.29 55.72, 39.14 32.12 M6.37 71.06 C18.66 57.73, 30.45 43.67, 38.23 33.13 M10.36 75.11 C21.28 57.74, 34.12 46.66, 56.2 19.23 M9.16 72.64 C21.28 60.73, 31.17 48.12, 58.12 16.65 M13.03 77.62 C34.14 52.39, 54.81 25.4, 79.03 0.98 M12.02 75.51 C37.53 47.06, 62.9 17.35, 77.13 1.39 M16.69 79.06 C34.57 57.99, 53.58 35.28, 82.04 3.55 M15.65 78.2 C38.11 54.25, 58.86 28.25, 82.65 2.58 M17.83 81.23 C35.97 64.45, 51.89 42.35, 84.61 5.78 M19.02 82.09 C41.03 55.42, 64.35 28.25, 85.87 4.29 M21.07 83.84 C37.69 64.86, 55.42 47.11, 89.79 6.74 M22.03 84.61 C44.44 57.93, 66.58 31.53, 88.45 7.02 M23.14 84.47 C51.85 54.9, 76.35 26.01, 91.45 8.88 M25.55 87.25 C41.19 66.65, 57.37 49.84, 91.67 10.83 M28.91 90.55 C44.7 66.1, 63.47 45.93, 95.58 12.53 M27.36 89.57 C51.15 61.5, 74.52 35.02, 93.77 11.82 M32.01 90.67 C46 73.78, 62.86 56.86, 96.29 15.88 M30.83 90.44 C44.48 74.3, 57.32 59.52, 97.89 16.18 M36.26 93.52 C51.76 74.28, 67.07 56.6, 99.82 19.01 M34.32 93.04 C54.56 68.77, 77.32 42.57, 100.16 18.16 M35.55 95.44 C52.62 78.16, 67.77 61.74, 104.52 19.87 M37.09 96.37 C55 75.6, 72.33 56.25, 103.59 20.06 M39.24 99.37 C62.08 74.21, 82.98 48.77, 104.9 22.28 M40.66 98.23 C62.6 73.14, 86.5 47.2, 106.17 24.26 M44.81 102.12 C58 82.77, 73.85 63.88, 107.56 23.94 M43.52 100.49 C63.98 76.57, 86.8 53.71, 108.8 25.17 M45.88 102.41 C70.35 78.34, 91.17 51.09, 111.23 28.43 M47.08 103.09 C71.12 77.11, 94.23 49.43, 111.34 29.31 M48.2 104.81 C67.01 85.79, 89.49 61.88, 115.45 28.43 M49.69 106.01 C64.55 88.86, 78.67 72.47, 115.24 30.46 M54.27 107.01 C69.76 90.09, 84.87 67.4, 117.89 32.79 M53.29 108.56 C71.41 89.45, 87.8 69.33, 118.89 32.76 M56.78 110.84 C75.12 90.4, 94.32 67.75, 122.31 33.94 M56.79 110.36 C74.48 91.24, 90.82 73.11, 121.62 36.14 M58.49 113.75 C79.46 89.78, 102.93 63.8, 123.95 38.97 M60.01 112.85 C83.83 85.09, 110.34 53.36, 125.04 37.33 M61.65 115.81 C76.77 101.13, 90.66 82.03, 126.18 40.82 M63.05 116.27 C80.84 96.55, 97.45 77.02, 127.67 41.15 M64.61 118.98 C86.02 95.93, 106.82 74.3, 132.49 42.31 M64.95 118.93 C80.44 99.68, 97.68 80.66, 130.99 44.46 M69.86 123.07 C82.43 106.94, 94.66 91, 134.48 44.15 M67.68 121.18 C91.04 93.66, 116.22 67.68, 133.42 46.21 M72.02 125.79 C86.28 103.8, 103.98 87.07, 135.9 48.91 M72.16 123.48 C96.03 94.92, 122.52 63.38, 136.3 49.37 M74.49 125.95 C92.76 108.32, 106.12 87.99, 140.62 53.04 M74.88 125.55 C98 98.56, 122.52 70.42, 139.92 51.01 M78.8 130.52 C98.34 105.9, 121.44 80.15, 144.61 54.85 M77.34 129.45 C96.96 106.62, 116.77 85.04, 143.51 54.24 M80.62 130.06 C97.16 111.02, 115.53 94.55, 143.99 58.56 M81.89 131.07 C94.75 115.35, 109.25 100.15, 145.22 56.25 M98.13 116.42 C118.14 95.91, 135.57 77.03, 147 58.24 M98.31 115.71 C114.73 98.43, 132.18 78.08, 148.17 58.29 M115.49 102.02 C125.3 92.28, 132.97 84.48, 150.01 61.83 M117.09 101.49 C127.8 90.25, 137.59 77.72, 152.37 61.65 M136.06 87.82 C142.79 79.41, 148.73 74.26, 153.49 63.16 M134.78 87.2 C142.1 78.34, 150.11 71.36, 154.81 63.71" stroke="#ced4da" stroke-width="0.5" fill="none"></path><path d="M79.27 0.72 C98.81 14.03, 117.3 30.47, 157.76 65.71 M78.07 -0.97 C106.35 23.92, 132.62 46.29, 157.36 65.69 M157.64 67.79 C133.96 83.41, 114.48 102.38, 78.51 129.58 M157.6 65.55 C133.41 85.78, 109.65 105.83, 78.05 129.89 M80.08 131.5 C51.82 108.41, 26.41 87.66, -1.78 66.51 M78.33 130.07 C54.26 109.28, 30.19 90.33, 0.21 65.41 M-1.29 66.56 C19.25 48.72, 42.33 32.83, 80.14 0.07 M-0.84 65.52 C19.96 50.11, 37.53 33.01, 79.17 -0.26" stroke="#000000" stroke-width="1" fill="none"></path></g><g transform="translate(526.7500000000005 340.875) rotate(0 49.5 26)"><text x="49.5" y="18" font-family="Virgil, Segoe UI Emoji" font-size="20px" fill="#000000" text-anchor="middle" style="white-space: pre;" direction="ltr">compatible</text><text x="49.5" y="44" font-family="Virgil, Segoe UI Emoji" font-size="20px" fill="#000000" text-anchor="middle" style="white-space: pre;" direction="ltr">version?</text></g><g transform="translate(538.7500000000005 474.1250000000001) rotate(0 10 13)"><text x="0" y="18" font-family="Virgil, Segoe UI Emoji" font-size="20px" fill="#000000" text-anchor="start" style="white-space: pre;" direction="ltr">no</text></g><g stroke-linecap="round"><g transform="translate(486.67385193462496 366.84270508288483) rotate(0 -50.917394234199605 0.8783733970570182)"><path d="M-0.74 0.52 C-17.74 0.6, -85.04 0.59, -101.86 0.47 M1.08 -0.26 C-16.12 0.03, -85.67 1.84, -102.91 2.01" stroke="#000000" stroke-width="1" fill="none"></path></g><g transform="translate(486.67385193462496 366.84270508288483) rotate(0 -50.917394234199605 0.8783733970570182)"><path d="M-74.06 -9.13 C-83.68 -5.53, -93.58 -1.25, -101.84 1.23 M-75.5 -9.42 C-82.95 -5.36, -92.57 -2.84, -102.15 1.04" stroke="#000000" stroke-width="1" fill="none"></path></g><g transform="translate(486.67385193462496 366.84270508288483) rotate(0 -50.917394234199605 0.8783733970570182)"><path d="M-73.67 11.38 C-83.42 8.55, -93.44 6.39, -101.84 1.23 M-75.1 11.1 C-82.65 8.79, -92.38 4.95, -102.15 1.04" stroke="#000000" stroke-width="1" fill="none"></path></g></g><g transform="translate(434.3750000000002 336.625) rotate(0 15.5 13)"><text x="0" y="18" font-family="Virgil, Segoe UI Emoji" font-size="20px" fill="#000000" text-anchor="start" style="white-space: pre;" direction="ltr">yes</text></g><g stroke-linecap="round"><g transform="translate(771.7411072374935 60.455571637138746) rotate(0 -67.58765970911554 -2.105466622149038)"><path d="M1.07 -0.1 C-21.36 -0.44, -112.31 -1.75, -135.15 -2.41 M0.17 -1.2 C-22.39 -1.84, -113.93 -3.78, -136.24 -4.11" stroke="#000000" stroke-width="1" fill="none"></path></g><g transform="translate(771.7411072374935 60.455571637138746) rotate(0 -67.58765970911554 -2.105466622149038)"><path d="M-108.04 -14.31 C-113.71 -13, -123.64 -7.17, -138.2 -4.42 M-108.15 -13.41 C-113.77 -11.85, -119.28 -10.01, -135.28 -3.24" stroke="#000000" stroke-width="1" fill="none"></path></g><g transform="translate(771.7411072374935 60.455571637138746) rotate(0 -67.58765970911554 -2.105466622149038)"><path d="M-108.42 6.21 C-113.93 2.33, -123.77 2.97, -138.2 -4.42 M-108.53 7.11 C-114.17 4.46, -119.6 2.11, -135.28 -3.24" stroke="#000000" stroke-width="1" fill="none"></path></g></g><g stroke-linecap="round"><g transform="translate(765.6250000000005 316.25) rotate(0 -49.65216684001962 24.27542755550705)"><path d="M-0.34 0.03 C-17.32 7.98, -84.53 39.91, -100.98 48.05 M1.68 -0.99 C-15.01 7.12, -81.96 41.57, -98.79 49.54" stroke="#000000" stroke-width="1" fill="none"></path></g><g transform="translate(765.6250000000005 316.25) rotate(0 -49.65216684001962 24.27542755550705)"><path d="M-78.05 26.17 C-85.91 37.47, -92.32 42.54, -97.76 50.3 M-77.15 27.7 C-85.06 35.16, -90.8 41.49, -98.56 50.17" stroke="#000000" stroke-width="1" fill="none"></path></g><g transform="translate(765.6250000000005 316.25) rotate(0 -49.65216684001962 24.27542755550705)"><path d="M-68.92 44.55 C-80.25 48.94, -90.08 47.14, -97.76 50.3 M-68.02 46.07 C-78.96 47.78, -87.56 48.36, -98.56 50.17" stroke="#000000" stroke-width="1" fill="none"></path></g></g><g stroke-linecap="round"><g transform="translate(757.5000000000005 453.125) rotate(0 -48.67255486938632 -38.756100149345585)"><path d="M0.8 0.64 C-15.44 -12.26, -81.02 -63.5, -97.3 -76.54 M-0.23 -0.07 C-16.63 -13.37, -81.96 -65.45, -98.15 -78.15" stroke="#000000" stroke-width="1" fill="none"></path></g><g transform="translate(757.5000000000005 453.125) rotate(0 -48.67255486938632 -38.756100149345585)"><path d="M-68.61 -68.36 C-77.07 -70.47, -87.71 -75.47, -99.29 -76.41 M-70.12 -68.18 C-77.57 -71.89, -86.2 -74.15, -97.33 -78.7" stroke="#000000" stroke-width="1" fill="none"></path></g><g transform="translate(757.5000000000005 453.125) rotate(0 -48.67255486938632 -38.756100149345585)"><path d="M-81.36 -52.28 C-85.93 -59.52, -92.58 -69.56, -99.29 -76.41 M-82.87 -52.09 C-86.83 -60.34, -91.93 -67.07, -97.33 -78.7" stroke="#000000" stroke-width="1" fill="none"></path></g></g><g stroke-linecap="round" transform="translate(497.50000000000045 558.1250000000001) rotate(0 78.75 65)"><path d="M-0.12 66.14 C-0.12 66.14, -0.12 66.14, -0.12 66.14 M-0.12 66.14 C-0.12 66.14, -0.12 66.14, -0.12 66.14 M3.61 70.53 C9.06 61.92, 12.51 56.69, 18.17 48.72 M2.94 68.3 C10.23 61.47, 15.78 53.38, 18.64 50.71 M7.7 70.61 C17.33 57.1, 31.58 41.77, 38.35 33.98 M6.33 71.17 C14.44 61.05, 24.98 50.7, 39.52 34.18 M10.17 74.99 C24.24 58.13, 37.47 38.4, 59.28 16.08 M9.59 74.25 C21.78 58.43, 34.56 44.62, 58.08 18.23 M12.96 76.25 C25.51 60.83, 41.97 43.74, 77.33 2.97 M12.99 75.76 C32.06 52.61, 53.18 27.42, 78.33 0.17 M16.09 78.57 C30.17 61.19, 46 43.39, 81.9 1.84 M15.74 77.78 C37.88 53.48, 59.3 26.05, 82.17 2.73 M19.05 80.79 C37.62 59.93, 56.4 36.16, 83.38 4.52 M19.3 81.17 C41.55 55.41, 64.56 27.57, 85.29 5.5 M21.44 83.61 C42.46 63.75, 59.96 39.78, 87.81 7.09 M22.09 82.86 C35.46 66.21, 51.01 50.51, 87.84 8.45 M23.01 85.59 C40.34 71.1, 50.47 56.9, 92.07 9 M25.46 85.85 C50.43 57.3, 76.89 27.27, 91.62 11.14 M27.62 87.19 C47.37 69.96, 65.66 45.32, 93.13 11.57 M27.69 89.19 C51.77 61.23, 75.1 35.11, 93.35 13.19 M31.92 89.98 C48.23 68.95, 70.06 50.25, 96.12 14 M30.67 91.24 C56.75 62.63, 81.64 34.24, 96.69 16.29 M34.7 91.67 C49.73 75.81, 66.4 57, 98.27 17.37 M35.25 92.7 C56.15 68.86, 76.74 44.67, 100.24 18.18 M36.86 97.57 C56.77 70.9, 77.02 49.1, 104.95 20.62 M37.18 96.06 C58.81 70.97, 79.49 47.38, 103.54 20.65 M38.76 99.64 C62.26 72.79, 80.41 51.21, 105.63 24.58 M40.5 98.63 C54.15 81.74, 69.12 67.38, 105.07 23.6 M44.89 99.69 C56.86 86.25, 70.89 71.1, 109.95 23.94 M44.18 101.76 C65.45 76.02, 87.39 51.12, 108.22 24.94 M47.87 105.44 C73.16 76.04, 97.17 47.27, 111.62 27.29 M46.14 104.9 C70.83 77.47, 93.89 48.66, 111.37 28.66 M48.44 106.44 C72.66 78.92, 97.61 50.35, 117.18 32.31 M49.22 107.54 C66.28 88.07, 81.83 70.62, 116.44 30.08 M52.1 109.41 C79.62 82.28, 101.91 50.34, 119.3 32.84 M53.88 108.48 C70.74 89.05, 87.35 68.97, 118.35 32.82 M54.55 109.16 C77.25 86.43, 96.04 67.6, 120.76 34.32 M55.51 110.85 C79.51 83.95, 104.07 56.59, 120.92 36.3 M57.54 112.15 C80.65 88.3, 104.21 62.07, 123.77 36.83 M58.44 113.57 C77.27 92.74, 95.66 72.14, 124.25 38.78 M62.32 115.45 C75.84 98.07, 88.55 84.86, 126.72 42.32 M61.27 116.4 C83.67 92.2, 106.7 67.18, 127.38 40.55 M66.25 118.01 C82.94 100.15, 98.81 76.93, 132.09 42.62 M65.54 119.13 C82.18 98.66, 100.6 77.58, 130.27 43.99 M66.81 120.65 C79.84 106.86, 96.16 92.49, 134.49 47.41 M67.72 121.63 C85.15 101.09, 102.33 83.25, 133.85 45.53 M69.63 126.07 C94.97 96.69, 121.87 67.56, 136.66 48.28 M71.22 123.85 C87.93 106.45, 101.16 88.66, 135.95 49.66 M73.09 126.09 C94.4 106.62, 111.17 85.21, 141.46 50.67 M75.05 127.01 C97.58 99.04, 121.33 72.37, 139.38 50.94 M77.75 128.68 C95.51 110.35, 109.81 93.18, 143.89 53.91 M77.18 128.69 C91.77 113.92, 105.57 97.54, 143.85 53.98 M82.25 129.39 C104.43 105.78, 127.54 79.25, 147.05 55.2 M80.5 132.24 C104.29 105.34, 127.64 77.9, 146.03 57.48 M99.79 117.08 C114.02 96.84, 132.33 81.45, 150.19 57.61 M99.25 116.49 C117.01 93.79, 137.13 72.15, 149.51 60.17 M117.53 101.17 C125.84 92.15, 132.97 85.53, 152.66 62.09 M116.45 101.05 C126.27 90.4, 137.43 80.15, 152.83 62.86 M133.82 87.61 C142.48 80.39, 150.78 69.89, 153.96 63.47 M135.13 86.21 C139.52 82.63, 144.73 76.15, 155.47 64.42" stroke="#ced4da" stroke-width="0.5" fill="none"></path><path d="M79.84 1.83 C95.74 16.65, 112.06 29.92, 155.95 66.95 M78.9 0.85 C99.22 16.69, 118.98 34.49, 156.8 65.67 M158.93 64.54 C138.13 79.72, 117.77 97.06, 79.5 129.86 M156.93 65.33 C130.45 87.77, 102.52 110.54, 79.19 129.87 M80.43 131.05 C51.33 106.14, 24.68 86.08, -0.63 65.99 M79.23 129.97 C59.67 114.91, 41.74 99.22, 0.62 65.06 M-0.53 65.06 C19.17 52.12, 35.51 36.6, 77.8 -0.08 M-0.79 65.22 C22.8 47.45, 45.63 28.45, 78.94 0.23" stroke="#000000" stroke-width="1" fill="none"></path></g><g transform="translate(535.0000000000005 595.8750000000001) rotate(0 42.5 26)"><text x="42.5" y="18" font-family="Virgil, Segoe UI Emoji" font-size="20px" fill="#000000" text-anchor="middle" style="white-space: pre;" direction="ltr">migration</text><text x="42.5" y="44" font-family="Virgil, Segoe UI Emoji" font-size="20px" fill="#000000" text-anchor="middle" style="white-space: pre;" direction="ltr">possible?</text></g><g stroke-linecap="round"><g transform="translate(756.8750000000005 630.6250000000001) rotate(0 -45.852189938011634 -1.7852363925520365)"><path d="M-1 -0.95 C-16.28 -1.55, -77.22 -2.67, -92.38 -3 M0.68 1.16 C-14.19 0.17, -75.24 -3.73, -90.27 -4.73" stroke="#000000" stroke-width="1" fill="none"></path></g><g transform="translate(756.8750000000005 630.6250000000001) rotate(0 -45.852189938011634 -1.7852363925520365)"><path d="M-63.06 -15.03 C-67.22 -12.57, -74.12 -10.31, -91.7 -5.19 M-61.64 -13.1 C-71.03 -10.4, -79.97 -8.51, -89.76 -5.63" stroke="#000000" stroke-width="1" fill="none"></path></g><g transform="translate(756.8750000000005 630.6250000000001) rotate(0 -45.852189938011634 -1.7852363925520365)"><path d="M-64.39 5.45 C-68.32 2.92, -74.9 0.18, -91.7 -5.19 M-62.97 7.38 C-71.87 3.51, -80.38 -1.19, -89.76 -5.63" stroke="#000000" stroke-width="1" fill="none"></path></g></g><g stroke-linecap="round" transform="translate(289.0625000000002 580.9375000000001) rotate(0 41.5625 38.125)"><path d="M13.74 9.29 C13.74 9.29, 13.74 9.29, 13.74 9.29 M13.74 9.29 C13.74 9.29, 13.74 9.29, 13.74 9.29 M1.52 29.74 C6.55 20.71, 14.4 14.58, 21.34 7.62 M1.79 28.85 C8.3 22.87, 13.85 17.3, 20.76 5.66 M2.93 34.09 C11.42 24.02, 19.27 14.93, 30.47 4.75 M2.4 35.56 C8.01 26.94, 14.84 21.03, 30.42 2.23 M3.14 38.88 C8.6 30.84, 15.19 23.26, 37.17 4.74 M1.59 40.13 C13.22 27.55, 22.16 16.98, 34.31 2.49 M4.76 45.79 C14.68 35.64, 24.38 21.6, 39.13 3.91 M2.28 46.98 C16.52 31.83, 28.62 15.74, 39.74 3.17 M3.18 49.64 C15 40.73, 26.63 24.71, 45.55 1.18 M2.97 51.85 C19.63 34.25, 34.74 16.02, 46.32 1.83 M5.91 55.14 C17.4 40.2, 29.76 24.15, 51.08 4.41 M7.1 54.56 C21.56 37.7, 36 19.27, 49.96 3.09 M6.65 59.1 C25.37 39.78, 42.69 18.07, 56.51 5.03 M9.09 57.22 C23.69 39.27, 38.3 22.81, 55.48 3.38 M12.5 62.74 C28.68 40.19, 46.56 18.57, 61.41 5.86 M11.6 60.51 C28.93 42.13, 44.69 22.47, 59.32 4.7 M14.69 65.13 C30.21 46.94, 43.62 29.95, 61.5 7.63 M14.22 65.19 C25.02 51.43, 37.5 37.04, 62.86 7.1 M16.6 67.22 C29.65 52.23, 42.74 36.49, 67.22 9.87 M15.5 68.06 C29.24 53.3, 41.45 38.32, 67.05 9.69 M18.36 71.06 C31.33 55.32, 43.02 40.92, 69.88 9.81 M19.56 71.23 C31.02 57.87, 42.79 43.8, 70.48 11.42 M23.59 73.38 C35.4 57.21, 52.93 41.35, 74.87 16.26 M22.82 71.63 C34 59.43, 47 46.49, 72.66 15.03 M28.03 72.73 C42.19 51.76, 59.54 35.13, 75.72 15.92 M26.63 74.26 C42.07 55.05, 57.99 37.98, 76.04 15.31 M30.89 74.33 C45.94 59.06, 61.68 40.93, 78.12 21.89 M30.62 74.93 C46.45 56.02, 64.22 36.42, 78.05 21.65 M35.49 77.25 C49.1 61.45, 63.01 44.56, 78.48 25.58 M35.35 77.51 C43.32 66.64, 52.63 54.98, 79.64 25.98 M39.93 75.42 C47.75 63.54, 60.41 52.95, 81.38 28.83 M38.96 76.93 C56.48 58.74, 70.44 41.98, 80.76 28.78 M43.77 75.68 C59.99 61.35, 74.52 43.46, 84.17 34.6 M45.89 77.17 C56.85 61.71, 71.08 46.63, 82.94 33.86 M51.39 73.98 C56.89 68.93, 67.13 60.7, 84.36 35.69 M52.18 75.55 C63.61 61.43, 76.69 47.04, 84.65 37.09 M58.61 72.89 C65.2 69.67, 67.99 60.23, 83.61 47.35 M58.15 74.2 C62.02 68.16, 67.09 63.43, 81.37 46.93" stroke="#fab005" stroke-width="0.5" fill="none"></path><path d="M57.81 2.61 C64.73 4.52, 71.22 10.13, 75.39 15.66 C79.55 21.18, 82.43 28.9, 82.78 35.76 C83.12 42.61, 81.22 50.68, 77.44 56.78 C73.65 62.88, 66.63 69.15, 60.07 72.34 C53.52 75.53, 45.46 76.59, 38.09 75.92 C30.72 75.26, 21.81 72.64, 15.87 68.35 C9.94 64.06, 4.89 56.75, 2.49 50.2 C0.09 43.65, -0.36 35.8, 1.47 29.03 C3.31 22.26, 8.03 14.15, 13.48 9.59 C18.92 5.03, 26.06 2.56, 34.14 1.67 C42.21 0.78, 56.8 3.15, 61.96 4.26 C67.11 5.37, 65.34 7.81, 65.06 8.34 M26.65 3.65 C33.2 0.9, 43.19 -0.06, 50.81 1.23 C58.43 2.53, 67.36 6.74, 72.38 11.41 C77.41 16.09, 79.52 22.55, 80.93 29.27 C82.35 36, 83.42 45.37, 80.86 51.77 C78.31 58.16, 71.68 63.34, 65.6 67.64 C59.52 71.95, 51.51 76.87, 44.39 77.58 C37.27 78.3, 29.62 75.62, 22.88 71.94 C16.14 68.25, 7.71 61.65, 3.95 55.49 C0.19 49.33, -0.51 41.8, 0.34 34.99 C1.19 28.18, 4.8 19.98, 9.04 14.62 C13.27 9.27, 22.47 4.68, 25.75 2.87 C29.02 1.06, 28.08 3.37, 28.66 3.74" stroke="#000000" stroke-width="1" fill="none"></path></g><g transform="translate(297.6250000000002 604.1875000000001) rotate(0 35.5 13)"><text x="35.5" y="18" font-family="Virgil, Segoe UI Emoji" font-size="20px" fill="#000000" text-anchor="middle" style="white-space: pre;" direction="ltr">migrate</text></g><g stroke-linecap="round"><g transform="translate(490.95018471088997 622.8024134594457) rotate(0 -52.63324453883797 -1.97855878153959)"><path d="M0.77 0 C-16.81 -0.44, -88.49 -1.88, -106.04 -2.2 M-0.28 -1.05 C-17.46 -1.87, -86.45 -3.5, -103.92 -3.95" stroke="#000000" stroke-width="1" fill="none"></path></g><g transform="translate(490.95018471088997 622.8024134594457) rotate(0 -52.63324453883797 -1.97855878153959)"><path d="M-75.49 -15.37 C-81.47 -10.26, -88.25 -10.47, -105.37 -2.4 M-75.99 -13.98 C-86.5 -10.33, -94.72 -5.99, -103.78 -3.35" stroke="#000000" stroke-width="1" fill="none"></path></g><g transform="translate(490.95018471088997 622.8024134594457) rotate(0 -52.63324453883797 -1.97855878153959)"><path d="M-76 5.14 C-81.93 5.06, -88.57 -0.35, -105.37 -2.4 M-76.5 6.53 C-86.9 2.89, -94.94 -0.06, -103.78 -3.35" stroke="#000000" stroke-width="1" fill="none"></path></g></g><g transform="translate(443.7500000000002 587.2500000000001) rotate(0 15.5 13)"><text x="0" y="18" font-family="Virgil, Segoe UI Emoji" font-size="20px" fill="#000000" text-anchor="start" style="white-space: pre;" direction="ltr">yes</text></g><g stroke-linecap="round"><g transform="translate(578.7500000000005 705.0000000000001) rotate(0 0.6427752270736846 49.77361240810714)"><path d="M-0.39 0.94 C-0.04 17.26, 1.48 81.79, 1.47 98.01 M1.61 0.4 C1.93 16.84, 0.93 82.67, 0.97 99.15" stroke="#000000" stroke-width="1" fill="none"></path></g><g transform="translate(578.7500000000005 705.0000000000001) rotate(0 0.6427752270736846 49.77361240810714)"><path d="M-7.52 72.3 C-7.8 76.16, -4.92 85.91, 2.91 98.01 M-8.95 70.74 C-6.48 76.2, -5.08 84.04, 0.75 99.43" stroke="#000000" stroke-width="1" fill="none"></path></g><g transform="translate(578.7500000000005 705.0000000000001) rotate(0 0.6427752270736846 49.77361240810714)"><path d="M13 72.45 C7.61 76.21, 5.38 85.92, 2.91 98.01 M11.57 70.88 C9.6 76.24, 6.56 84.05, 0.75 99.43" stroke="#000000" stroke-width="1" fill="none"></path></g></g><g transform="translate(555.6250000000005 735.3750000000001) rotate(0 10 13)"><text x="0" y="18" font-family="Virgil, Segoe UI Emoji" font-size="20px" fill="#000000" text-anchor="start" style="white-space: pre;" direction="ltr">no</text></g><g stroke-linecap="round" transform="translate(10 585.625) rotate(0 90 35.625)"><path d="M0 0 C0 0, 0 0, 0 0 M0 0 C0 0, 0 0, 0 0 M-0.81 6.14 C1.9 5.52, 1.92 2.88, 5.39 0.16 M-0.51 6.09 C0.8 4.79, 2.01 4.24, 4.74 0.61 M-0.34 12.79 C4.13 9.77, 4.39 5.11, 11.38 -0.77 M0.25 12.67 C3.44 7.67, 7.89 3.18, 10.53 -0.67 M1.53 17.34 C2.45 15.12, 8.33 10.79, 16.52 -0.98 M0.85 18 C3.48 15.13, 6.05 9.73, 16.3 0.48 M1.49 24.21 C5.68 17.25, 13.96 9.25, 22.84 -1.72 M0.49 24.43 C7.61 16.38, 15.56 7.55, 21.98 0.63 M-0.22 30.08 C5.83 24.64, 12.05 16.19, 27.8 -1.57 M0.32 31.34 C8.64 21.6, 17.28 10.89, 27.24 1.28 M0.66 37.31 C14.46 24.33, 25.17 7.62, 33.16 -1.79 M-0.51 36.64 C6.95 27.89, 16.95 18.3, 32.45 0.03 M-1.79 44.39 C9.97 35.01, 16.72 22.33, 35.93 -0.51 M-0.78 43.18 C12.68 27.6, 27.03 11.89, 37.41 0.43 M-1.54 48.18 C9.86 37.97, 19.33 29.85, 41.62 1.24 M0.81 49 C12.58 34.87, 24.67 19.84, 42.61 -0.07 M-0.1 54.67 C14.51 36.02, 30.03 18.46, 47 1.59 M0.26 54.08 C13.03 39.64, 26.07 24.47, 47.99 -0.04 M0.32 60.98 C13.62 44.62, 28.96 28.89, 53.32 -0.23 M1 60.32 C20.07 37.44, 38.95 15.77, 52.18 -0.13 M1.31 66.09 C10.59 51.73, 26.9 38.86, 57.11 2.16 M0.48 68.34 C20.51 43.47, 40.26 21.63, 57.21 0.94 M-1 72.35 C19.52 48.81, 41.45 24.81, 63.36 0.22 M0.9 72.89 C18.47 52.47, 36.72 30.81, 63.85 0.39 M5.38 71.99 C28.1 46.53, 50.31 19.78, 68.34 0.58 M6.46 71.44 C27.3 48.79, 46.58 24.49, 68.26 -0.6 M9.77 71.14 C27.75 51.84, 46.23 35.44, 72.82 -1.02 M10.91 72.19 C31.33 47.92, 51.36 24.97, 75.32 -0.95 M17.94 72.55 C31.3 56.23, 45.78 35.99, 80.8 -1.72 M16.62 72.72 C33.27 54.29, 47.86 36.23, 79.34 0.4 M22.9 74.08 C35.16 54.55, 54.49 37.26, 84.79 -1.54 M21.39 72.58 C42.9 48.98, 63.94 25.88, 85.31 0.4 M26.15 70.71 C46.95 50.57, 64.12 29.08, 88.57 -1.35 M27.72 71.23 C46.23 51.63, 64.45 30.36, 89.66 -0.03 M32.46 72.57 C54.31 48.88, 76.22 20.1, 96.38 -0.92 M33.55 72.11 C55.78 46.15, 79.19 18.97, 95.51 -0.03 M39.09 70.88 C52.8 53.83, 66.65 38.39, 99.75 -0.89 M37.48 72.54 C56.18 51.88, 74.77 30.84, 101.41 -0.83 M42.56 72.02 C65.26 48.38, 86.04 21.15, 106.68 -0.77 M43.58 71.83 C59.78 53.54, 78.08 32.98, 106.62 0.31 M47.87 71.46 C67.37 51.8, 82.62 28.9, 112.43 -0.95 M48.59 71.19 C61.64 57.29, 74.03 41.69, 111.81 0.05 M55.28 71.83 C69.86 51.69, 91 33.2, 116.12 0.07 M54.69 71.79 C75.32 49.39, 95.54 24.83, 115.7 -0.27 M60.91 73.61 C79.33 46.89, 104.96 19.48, 122.72 -0.11 M58.1 71.48 C77.96 50.28, 97.14 27.33, 121.06 -0.36 M62.73 73.41 C87.12 45.76, 110.19 21.46, 125.11 -1.49 M65.09 73.03 C85.74 47.35, 108.5 22.35, 126.76 1.27 M70.63 74.22 C88.49 50.16, 106.79 29.67, 132.69 1.03 M70.03 72.44 C90.67 48.89, 111.47 24.32, 132.35 0.01 M74.99 72.16 C90.97 56.76, 101.77 39, 138.09 -0.3 M75.98 71.6 C89.25 55.77, 104.56 37.42, 136.84 1.22 M81.46 70.47 C105.73 43.16, 128.33 16.59, 142.45 -0.12 M79.42 72.38 C101.75 47.14, 124.08 23.09, 143.9 0.19 M84.17 73.5 C101.92 53.79, 118.33 35.37, 150.15 2.06 M85.55 72.55 C99.83 56.68, 111.95 41.91, 148.65 0.14 M92.5 72.75 C107.92 52.26, 127.53 29.12, 154.08 -0.16 M90.98 71.85 C110.58 50.08, 126.99 30.44, 152.9 0.22 M96.34 72.83 C120.03 46.92, 140.82 24.95, 158.38 1.98 M97.01 71.92 C117.47 46.66, 140.7 23.38, 157.9 -0.44 M100.84 73.47 C118.74 51.95, 137.25 29.55, 163.69 -1.68 M102.4 72.39 C114.75 55.64, 130.75 38.86, 163.56 -0.83 M107.62 71.55 C121.51 55.04, 136.17 42.08, 169.89 1.87 M106.58 72.76 C124.17 52.01, 141.67 32.97, 169.27 0.04 M113.57 71.05 C126.21 56.85, 139.2 40.5, 173.36 -1.27 M112.4 72.54 C131.7 48.39, 152.01 26.2, 175.09 -0.93 M116.08 73.07 C142.7 42.71, 167.01 16.59, 181.75 2.15 M117.44 71.12 C135.84 50.96, 153.24 29.56, 180.49 1.12 M123.79 73.87 C133.3 55.94, 147.66 42.72, 181.29 5.27 M122.68 71.87 C135.97 57.44, 147.84 44.54, 179.77 5.77 M129.83 70.8 C139.37 58.46, 148.73 47.66, 178.58 13.28 M127.8 72.05 C147.86 48.35, 168.42 24.98, 179.75 11.43 M134.59 72.36 C146.83 58.06, 159.04 43.34, 178.88 19.82 M133.93 72.9 C146.72 58.67, 158.72 45.14, 180.13 17.79 M138.96 72.15 C154.15 54.3, 166.07 38.99, 179.96 23.61 M138.87 71.58 C150.95 58.61, 163.23 44.2, 181.26 24.44 M143.07 70.91 C156.37 58.79, 167.8 45.67, 178.82 30.52 M143.86 71.2 C154.75 57.69, 166.21 46.16, 180.95 30.92 M151.56 70.51 C160.37 60.24, 173.79 46.69, 180.32 36.29 M148.85 70.77 C155.85 65.11, 162.45 56.64, 179.05 37.44 M156.32 71.94 C165.48 62.19, 175.27 47.9, 179.2 40.77 M155.18 71.3 C164 62.06, 172.22 51.43, 179.46 43.18 M161.73 73.3 C164.93 65.37, 173.18 56.64, 178.08 50.22 M160.94 71.67 C164.74 67.23, 168.12 61.46, 180.16 48.49 M163.43 71.85 C172.04 66.49, 178.72 57.11, 180.11 55.98 M165.59 72.75 C170.6 65.16, 176.26 58.65, 179.84 55.64 M169.23 71.12 C171.25 69.71, 176.65 66.81, 179.77 60.7 M170.57 72.17 C173.5 68.15, 176.46 64.18, 180.48 60.93 M175.76 72.35 C177.23 70.39, 178.48 68.81, 179.56 67.76 M175.84 72.07 C176.9 70.76, 177.92 69.93, 180.06 67.39" stroke="#82c91e" stroke-width="0.5" fill="none"></path><path d="M-1.71 1.97 C44.89 2.67, 94.78 0.82, 180.39 -0.66 M-0.37 -0.18 C65.42 -0.13, 130.22 -0.57, 179.28 -0.05 M179.42 0.13 C179.57 23.28, 179.38 45.69, 181.09 69.42 M179.52 0.27 C179.63 22.84, 179.64 43.41, 180.03 71.51 M179.04 69.51 C117.52 69.8, 50.26 72.14, -1.56 70.23 M180.56 71.32 C140.98 69.59, 103.01 69.83, -0.64 72.13 M-0.42 69.82 C-1.9 42.43, -1.67 15.96, -0.24 1.12 M0.79 70.57 C0.15 47.24, 0.57 26.01, -0.1 0.34" stroke="#000000" stroke-width="1" fill="none"></path></g><g transform="translate(17.875 594.625) rotate(0 81.5 26)"><text x="81.5" y="18" font-family="Virgil, Segoe UI Emoji" font-size="20px" fill="#000000" text-anchor="middle" style="white-space: pre;" direction="ltr">stored Datahike</text><text x="81.5" y="44" font-family="Virgil, Segoe UI Emoji" font-size="20px" fill="#000000" text-anchor="middle" style="white-space: pre;" direction="ltr">v2.0.0</text></g><g stroke-linecap="round"><g transform="translate(278.12406560559657 619.1713354046126) rotate(0 -38.81961480976486 0.017207039864160834)"><path d="M-0.82 -0.38 C-13.84 0.05, -64.99 1.58, -78.23 1.67 M0.94 -1.63 C-12.11 -1.43, -65.44 -0.39, -78.58 0.08" stroke="#000000" stroke-width="1" fill="none"></path></g><g transform="translate(278.12406560559657 619.1713354046126) rotate(0 -38.81961480976486 0.017207039864160834)"><path d="M-51.31 -9.01 C-57.06 -9.51, -67.62 -3.8, -79.09 -1.71 M-51.44 -10.97 C-60.99 -7.22, -68.5 -4.38, -77.96 -0.17" stroke="#000000" stroke-width="1" fill="none"></path></g><g transform="translate(278.12406560559657 619.1713354046126) rotate(0 -38.81961480976486 0.017207039864160834)"><path d="M-50.77 11.5 C-56.51 5.12, -67.23 4.95, -79.09 -1.71 M-50.9 9.54 C-60.48 6.45, -68.17 2.45, -77.96 -0.17" stroke="#000000" stroke-width="1" fill="none"></path></g></g><g stroke-linecap="round"><g transform="translate(580.4017549222094 100.89162422707892) rotate(0 -1.0828866568464264 23.744069579042158)"><path d="M-0.22 -0.23 C-0.53 7.59, -1.11 39.53, -1.53 47.7 M-1.79 -1.4 C-2.21 6.5, -1.65 40.88, -1.94 48.89" stroke="#000000" stroke-width="1" fill="none"></path></g><g transform="translate(580.4017549222094 100.89162422707892) rotate(0 -1.0828866568464264 23.744069579042158)"><path d="M-10.46 27.78 C-8.32 33.42, -3.83 42.09, -3.59 47.06 M-9.63 25.34 C-7.65 33.78, -4.45 42.6, -2.7 48.47" stroke="#000000" stroke-width="1" fill="none"></path></g><g transform="translate(580.4017549222094 100.89162422707892) rotate(0 -1.0828866568464264 23.744069579042158)"><path d="M6.1 27.89 C2.74 33.46, 1.73 42.09, -3.59 47.06 M6.93 25.44 C3 33.7, 0.28 42.49, -2.7 48.47" stroke="#000000" stroke-width="1" fill="none"></path></g></g><g stroke-linecap="round" transform="translate(785.0000000000005 159.375) rotate(0 91.875 25)"><path d="M0 0 C0 0, 0 0, 0 0 M0 0 C0 0, 0 0, 0 0 M0.09 7.19 C1.72 4, 2.9 3.13, 5 1.01 M-0.49 6.33 C1.91 4.07, 3.45 1.75, 5.16 0.49 M0.17 12.12 C3.95 8.84, 9.1 2.38, 10.01 -1.08 M0.12 11.82 C2.67 10.09, 4.84 6, 10.46 0.23 M0.03 19.74 C3.46 12.92, 8.17 9.24, 14.5 -1.52 M-1.11 19.1 C4.07 14.16, 6.62 10.45, 15.44 -0.4 M1.21 24.26 C6.9 20.1, 10.76 14.78, 21.11 -0.61 M0.14 23.72 C4.19 18.88, 8.53 13.61, 21.61 0.64 M-1.72 31.65 C7.06 23.33, 12.36 14.75, 25.38 0.21 M0.85 30.2 C7.92 22.39, 13.81 13.6, 26.31 0.54 M-0.13 35.48 C9.7 25.84, 19.3 13.8, 33.73 -1.36 M-1.09 36.9 C7.32 27.75, 14.48 19, 32.53 -0.51 M-1.24 43.2 C10.7 31.36, 22.26 19.69, 38.08 1.25 M1.12 42.24 C8.89 32.52, 17.22 21.92, 37.56 0.73 M1.87 50.39 C13.66 35.28, 26.26 19.64, 41.11 1.5 M-0.72 48.99 C13.89 32.1, 28.69 16.73, 42.24 0.56 M0.86 53.23 C19.17 34.12, 32.97 14.97, 47 1.71 M2.7 52.68 C12.78 41.39, 21.95 30.82, 47.74 0.35 M8.85 52.78 C16.64 41.27, 24.12 30.56, 54.67 -0.93 M7.01 51.91 C24.83 31.23, 43.17 9.86, 52.78 0.54 M14.53 53.28 C23.98 39.24, 37.87 23.7, 56.55 -0.34 M12.19 52.66 C29.84 32.67, 45.41 13.82, 58.4 0.62 M19.95 50.78 C30.68 35.62, 43.24 22.37, 63.82 0.44 M18.41 50.89 C28.77 39.65, 41.54 25, 63.2 -0.86 M24.67 50.25 C35.95 37.86, 44.25 27.15, 69.14 -0.78 M24.13 51.69 C40.89 32.03, 56.03 12.91, 68.09 -0.27 M30.97 51.5 C40.04 37.17, 50.24 25.44, 75.95 0.7 M29.4 51.16 C40.53 39.16, 50.5 27.82, 73.54 -0.94 M34.66 51.24 C46.82 36.56, 61.32 22.04, 81.17 -1.54 M34.56 52.48 C52.43 32.99, 68.51 14.25, 80.35 0.89 M38.3 53.04 C54.06 35.02, 66.73 23.2, 84.48 0.95 M39.52 51.91 C54.46 34.45, 71.8 15.43, 84.85 0.01 M45.93 53.35 C63.35 32.69, 80.8 13.08, 91.05 1.5 M44.51 52.74 C56.8 36.68, 69.83 23.22, 89.72 0.31 M52.36 51.49 C65.99 34.52, 76.65 18.97, 96.8 0.28 M51.32 51.35 C64.99 34.58, 79.72 18.93, 95.18 -1.31 M53.88 51.66 C72.23 31.6, 89.79 10.21, 99.18 -1.6 M56.05 51.16 C65.54 40.62, 75.73 27.96, 99.77 -0.83 M61.54 52.94 C75.08 34.26, 90.46 20.11, 106.34 -0.21 M60.35 52.68 C76.57 31.8, 93.18 12.64, 105.58 -1.2 M67.9 51.27 C78.31 39.56, 86.08 27.03, 111.97 1.29 M66.21 51.46 C80.13 35.34, 93.38 20.86, 111.02 -0.3 M71.61 54.24 C77.92 41.28, 87.44 31.59, 115.83 -0.68 M70.5 52.86 C80.98 40.83, 89.8 29.31, 115.42 -0.2 M75.42 51.28 C94.39 31.59, 110.08 11.9, 121.83 0.23 M77.05 52.32 C89.83 37.38, 102.15 21.9, 121.04 -0.91 M80.27 51.98 C98.22 32.74, 116.61 10.51, 128.01 -1.54 M82.63 51.59 C95.01 37.1, 107.91 22.01, 127.08 -0.12 M85.83 52.77 C105.13 30.78, 121.27 12.08, 131.16 -0.66 M87.61 51.46 C96.22 40.18, 107.28 28.37, 132.36 -0.46 M93.28 51 C109.42 31.57, 128.01 10.61, 137.6 1.06 M92.63 51.82 C105.42 37.32, 120.09 21.49, 137.95 0.51 M98.54 50.85 C111.3 36.97, 125.91 17.59, 144.37 0.7 M97.93 51.58 C110.74 36.53, 124.45 19.7, 142.53 0.27 M103.04 53.4 C119.83 33.98, 138.19 10.41, 150.03 0.21 M102.04 52.76 C113.59 39.26, 127.14 25.99, 149.07 -0.62 M106.96 50.6 C121.78 36.2, 134.86 19.4, 151.87 0.41 M109.07 52.39 C126.78 31.21, 143.66 10.9, 154.11 -0.54 M111.97 51.27 C127.75 39.11, 140.13 23.05, 160.7 -1 M113.42 52.6 C128.06 36.05, 141.56 19.85, 158.49 1.19 M118.49 51.12 C131.25 41.46, 139.24 27.07, 166.06 0.55 M119.07 52.57 C130.74 37.83, 143.41 25.05, 164.63 0.32 M124.46 50.71 C137.46 34.26, 150.41 18.14, 171.01 -1.47 M124.31 52.56 C135.17 38.79, 148.05 25.03, 169.25 -0.34 M130.54 53.5 C138.48 40.95, 151.83 29.74, 173.35 1.24 M128.98 51.85 C146.12 33.91, 163 14.69, 174.64 -0.93 M134.92 51.81 C149.19 34.59, 163.91 16.82, 180.37 1.89 M135.25 52.83 C145.38 39.7, 155.01 28.99, 179.4 -0.52 M138.52 52.84 C157.06 33.53, 171.45 16.69, 185.48 1.3 M140.84 50.91 C154.14 36.82, 166.5 21.27, 185.04 -0.35 M143.77 52.66 C153.92 41.66, 160.58 33.22, 184.29 4.97 M145.79 52.61 C153.83 42.18, 163.62 31.16, 184.09 7.15 M151.84 50.23 C164.06 38.16, 175.38 24.88, 183.03 12.17 M151.7 51.47 C162.06 40.84, 172.8 28.09, 184.53 13.58 M157.4 53.36 C167.23 38.51, 178.98 24.36, 183.48 17.35 M156.49 52.12 C161.59 46.42, 168.66 38.47, 184.68 19.87 M161.89 52.76 C170.14 41.3, 176.78 33.18, 185.56 27.09 M161.62 52.23 C170.52 42.38, 179.51 30.52, 183.81 25.25 M168.22 52 C173.71 46, 179.01 38.78, 183.94 30.84 M166.88 52.55 C172.84 44.43, 179.08 37.17, 184.79 30.04 M173.99 53.44 C178.58 46.2, 181.52 41.75, 182.9 38.85 M171.66 50.93 C176.62 45.28, 182.5 40.08, 184.78 37.6 M178.04 52.42 C178.48 49.71, 182.11 47.07, 184.46 44.62 M177.42 52.11 C179.24 49.92, 180.03 48.93, 184.14 43.44" stroke="#228be6" stroke-width="0.5" fill="none"></path><path d="M1.02 -1.01 C38.06 -1.13, 77.73 -0.56, 185.24 -1.43 M0.26 -0.22 C65.54 -2.32, 132.95 -2.06, 182.8 0.23 M182.95 -1.38 C185.43 16.47, 183.37 36.23, 182.71 51.82 M183.59 -0.87 C184.71 16.31, 183.1 31.06, 184.71 50.71 M185.25 50.6 C124.54 52.38, 61.63 53.25, -1.55 48.34 M182.98 49.5 C116.38 49.9, 49.27 50.82, 0.68 49.29 M-0.97 48.12 C0.85 38.1, -0.32 24.18, 0.2 -1.8 M-0.94 49.57 C0.06 31.68, -0.71 14.31, -0.68 -0.8" stroke="#000000" stroke-width="1" fill="none"></path></g><g transform="translate(796.8750000000005 171.375) rotate(0 80 13)"><text x="80" y="18" font-family="Virgil, Segoe UI Emoji" font-size="20px" fill="#000000" text-anchor="middle" style="white-space: pre;" direction="ltr">root meta data</text></g><g stroke-linecap="round"><g transform="translate(771.8615591397854 184.82532536145254) rotate(0 -74.74453928475691 0.7927214036456718)"><path d="M0.55 0.54 C-24.61 0.78, -124.97 1.95, -150.04 1.82 M-0.62 -0.22 C-25.5 -0.32, -123.45 0.12, -147.92 0.25" stroke="#000000" stroke-width="1" fill="none"></path></g><g transform="translate(771.8615591397854 184.82532536145254) rotate(0 -74.74453928475691 0.7927214036456718)"><path d="M-118.87 -12.01 C-128.52 -7.66, -142.5 -0.91, -146.31 0.52 M-120.11 -10.26 C-125.51 -7.2, -133.06 -6.16, -148.03 -0.57" stroke="#000000" stroke-width="1" fill="none"></path></g><g transform="translate(771.8615591397854 184.82532536145254) rotate(0 -74.74453928475691 0.7927214036456718)"><path d="M-118.77 8.52 C-128.52 5.17, -142.53 4.23, -146.31 0.52 M-120.02 10.26 C-125.33 8.76, -132.9 5.23, -148.03 -0.57" stroke="#000000" stroke-width="1" fill="none"></path></g></g><g stroke-linecap="round" transform="translate(223.12500000000023 333.75) rotate(0 76.5625 32.81250000000006)"><path d="M0 0 C0 0, 0 0, 0 0 M0 0 C0 0, 0 0, 0 0 M0.22 6.49 C1.01 4.91, 3.64 2.2, 5.04 0.91 M0.12 6.15 C1.6 3.76, 3.69 1.35, 4.65 0.09 M-0.52 13.28 C2.26 7.98, 4.52 6.42, 11.65 0.07 M-0.37 11.81 C1.68 8.84, 5 6.92, 10.38 -0.79 M1.66 16.49 C5.59 9.67, 12.68 3.96, 14.57 -1.32 M0.28 18.66 C4.81 11.89, 9.69 6.04, 15.04 1.13 M-0.51 24.3 C4.78 17.14, 9.9 12.56, 21.51 -0.43 M0.53 24.95 C8.4 15.05, 15.76 4.37, 20.37 0.89 M-0.44 29.15 C8.91 20.62, 15.29 13.4, 24.37 0.02 M-0.82 31.06 C8.35 20.7, 16.89 10.33, 25.79 1.18 M0.49 37.02 C7.71 25.46, 18.25 15.05, 31.28 -1.63 M-0.81 36.07 C11.62 22.98, 23.58 8.74, 31.49 0.76 M-1.25 42.02 C9.43 31.45, 18.57 19.46, 37.63 0.14 M-0.42 42.03 C9.07 33.26, 17.25 22.83, 37.08 0.38 M-1.26 48.65 C17.84 29.76, 31.43 11.55, 43.31 -0.08 M-0.53 48.15 C13.92 32.36, 26.58 16.67, 42.87 0.68 M1.32 54.5 C18.66 36.05, 31.92 17.44, 47.44 -0.55 M0.68 53.61 C16.74 37.4, 33.02 19.22, 46.61 0.28 M-1.35 60.34 C15.81 41.89, 30.68 23.23, 53.68 1.6 M0.44 61.49 C14.37 43.41, 29.15 26.81, 52.73 -0.3 M-0.64 68.01 C21.46 45.55, 39.72 24.38, 56.9 0.37 M0.69 66.84 C13.96 50.49, 27.69 34.49, 59.1 -0.58 M5.25 67.71 C19.66 51.6, 29.24 39.67, 64.49 -1.16 M6.7 65.85 C16.79 53.63, 28.91 39.43, 64.26 -0.14 M9.47 65.86 C24.54 46.71, 40.14 31.79, 67.09 -0.72 M11.31 65.71 C25.35 50.36, 39.32 33.24, 68.23 -0.64 M18.29 64.68 C32.39 50.31, 47.89 29.2, 75.84 1.04 M16.64 66.27 C37.95 43.98, 57.82 19.89, 73.67 0.2 M21.23 65.55 C41.62 41.97, 61.5 21.48, 81.12 -1.39 M22.25 67.33 C42.15 42.01, 64.45 16.58, 78.71 0.63 M28.3 66.94 C42.43 48.45, 59.04 31.61, 85.81 -0.4 M26.37 66.59 C42.91 47.68, 58.03 30.03, 84.16 -1.21 M32.75 66.47 C43.08 51.5, 56.13 38.53, 88.07 -1.25 M32.7 65.74 C50.21 45.87, 67.38 25.07, 90.25 0.79 M36.35 66.88 C58.76 42.7, 79.64 18.6, 94.51 -0.07 M37.6 66.36 C52.1 51.56, 64.16 36.27, 95.93 0.65 M44.11 66.04 C57.01 49.29, 70.52 31.31, 99.04 -1.88 M42.87 66 C59.23 49.57, 73.14 31.23, 101.56 0.37 M49.55 66.93 C65.1 44.89, 84 24.94, 108.03 1.43 M49.02 66.13 C70.52 42.38, 89.66 17.57, 106.19 -0.15 M53.42 67.66 C73.32 44.53, 92.08 20.63, 111.12 1.12 M53.97 66.16 C73.5 42.97, 93.56 20.47, 110.32 0.94 M60.98 67.48 C76.89 45.11, 95.35 23.95, 117.79 2.28 M58.34 65.43 C77.1 44.74, 96.79 22.25, 116.48 0.18 M64.76 64.74 C77.49 52.19, 90.03 35.73, 123.41 -1.85 M64.19 67.25 C84.32 42.27, 106.15 18.46, 121.25 -0.97 M69.75 66.94 C89.8 44.29, 107.87 21.76, 127.22 0.35 M70.27 66.83 C88.58 45.75, 105.18 25.09, 127.32 0.17 M76.22 64.68 C86.51 52.61, 97.98 37.99, 133 1.62 M74.75 67.33 C85.75 52.62, 96.98 39.19, 132.06 0.2 M80.94 65.71 C98.42 46.91, 116.43 27.33, 135.74 1.83 M80.5 65.86 C98.98 44.95, 117.24 22.83, 138.26 -0.36 M83.91 64.9 C97.41 52.63, 112.22 35.21, 142.98 -2.06 M85.84 65.44 C101.05 46.35, 118.17 28.61, 143.43 -1.02 M89.65 66.21 C107.33 48.06, 119.76 33.42, 149.46 2.1 M91.75 65.06 C111.06 42.05, 132.64 18.64, 148.5 0.63 M97.92 64.78 C119.38 41, 138.78 14.77, 153.79 0.28 M96.66 65.64 C114.53 46.15, 132.28 25.75, 152.42 -0.32 M100.98 64.84 C115.91 49.75, 131.56 30.9, 155.21 4.62 M101.7 66 C114.98 52.61, 127.5 37.58, 152.99 6.21 M106.34 65.76 C116.61 54.27, 128.21 42.82, 151.35 13.59 M107.43 66.96 C119.15 50.03, 133.39 33.86, 152.55 13.42 M113.35 64.76 C122.69 53.18, 133.88 42.89, 155.09 16.79 M112.42 65.97 C126.63 50.73, 140.12 34.47, 152.93 18.45 M119.26 67.22 C124.57 56.38, 133.92 45.05, 154.58 22.97 M117.33 65.45 C129 54.1, 141.3 40.12, 153.37 24.41 M121.18 64.87 C129.33 59.66, 136.53 49.47, 153.79 30.73 M122.91 67 C132.24 55.96, 142.09 45.96, 153.13 31.09 M128.77 66.57 C137.83 54.99, 145.58 42.89, 154.58 34.82 M128.59 66.16 C133.78 59.8, 138.52 54.12, 153.56 37.21 M134.91 68.32 C140.26 59.79, 144.73 52.49, 154.71 44.35 M133.23 66.41 C139.29 60.74, 144.31 53.83, 154.1 42.69 M136.98 67.23 C143.3 59.05, 149.88 54.89, 152.44 49.55 M138.39 67.14 C142.07 62.7, 146.22 57.52, 152.85 49.37 M143.61 67.28 C146.26 63.7, 151.04 60.13, 153.32 55.65 M143.2 65.92 C146.48 63.11, 150.47 59.07, 153.39 55.08 M148.85 66.26 C150.63 65.03, 150.61 64.14, 153.59 61.81 M149.14 65.91 C150.49 64.77, 151.22 63.61, 153.2 61.77" stroke="#82c91e" stroke-width="0.5" fill="none"></path><path d="M-0.95 -0.99 C45.45 -0.55, 91.65 1.36, 151.47 1.55 M0.29 0.75 C32.63 -0.91, 66.15 0.3, 153.9 -0.12 M154.37 1.37 C151.34 22.39, 154.54 42.24, 154.35 66.52 M153.23 -0.95 C153.55 20.04, 152.48 38.35, 153.41 66.6 M154.31 65.98 C115.79 66.35, 78.76 67.54, 1.41 65.12 M153.71 65.32 C103.28 65.53, 55.24 64.94, 0.22 65.69 M-0.28 67.43 C-1.18 43.38, -0.76 25.08, 0.6 0.35 M-0.42 65.62 C-0.79 49.18, 0.09 31.52, -1 0.89" stroke="#000000" stroke-width="1" fill="none"></path></g><g transform="translate(252.43750000000023 352.31250000000017) rotate(0 48.5 13)"><text x="48.5" y="18" font-family="Virgil, Segoe UI Emoji" font-size="20px" fill="#000000" text-anchor="middle" style="white-space: pre;" direction="ltr">connection</text></g><g stroke-linecap="round" transform="translate(272.1875000000002 990.3125000000001) rotate(0 76.5625 32.81250000000006)"><path d="M0 0 C0 0, 0 0, 0 0 M0 0 C0 0, 0 0, 0 0 M-0.14 6.62 C0.43 4.64, 2.79 2.76, 4.85 -0.07 M-0.11 6.72 C0.62 5.19, 2.45 3.91, 4.64 0.65 M-1.18 11.98 C4.05 8.77, 8.51 3.95, 9.95 -1.22 M0.19 11.87 C3.31 8.01, 6.57 3.92, 10.76 0.65 M0.79 19.6 C4.87 12.55, 7.33 10.46, 14.31 -1.05 M-1.08 18.93 C5.86 11.94, 10.75 6.17, 15.84 0.71 M1.09 22.21 C7.42 17.15, 12.1 9.12, 21.26 -1.83 M-0.56 24.31 C4.8 18.49, 8.4 13.95, 21.02 -1.05 M0.76 31.29 C4.6 24.98, 11.94 17.04, 24.87 0.75 M0.39 29.69 C9.98 19.69, 19.16 9, 25.5 -0.29 M1.03 36.2 C10.58 27.07, 21.23 14.04, 31.92 0.42 M0.42 37.47 C12.46 22.01, 25.36 6.86, 31.17 -0.91 M1.02 42.42 C6.86 35.82, 16.72 24.83, 36.4 2.06 M0.24 43.01 C12.72 27.61, 24.44 13.89, 37.33 1.12 M-0.27 49.82 C16.29 31.57, 32.99 9.3, 40.84 -0.36 M0.65 48.85 C13.96 33.5, 27.3 17.59, 41.97 -0.22 M0.68 55.39 C16.27 34.94, 32.48 16.12, 47 -1.71 M1.15 55.45 C19.53 33.58, 37.04 12.87, 46.52 0.98 M-1.38 59.25 C19.58 34.88, 42.57 11.71, 53.13 0.24 M0.68 61.24 C14.52 44.04, 30.88 26.62, 53.1 0.57 M0.82 66.62 C13.79 51.38, 23.22 40.24, 56.75 -1.14 M0.84 66.56 C12.57 53.86, 23.78 40.09, 57.27 0.35 M7.7 67.09 C25.01 47.95, 41.63 25.99, 63.88 0.63 M6.61 66.91 C22.21 47.36, 39.45 28.4, 63.27 0.02 M11.05 66.44 C35.79 40.14, 55.2 13.93, 67.76 -0.83 M10.51 66.81 C29.69 45.66, 48.64 24.62, 68.78 -0.74 M15.75 66.26 C37.97 40.9, 60.61 14.82, 74.17 1.21 M16.34 65.41 C29.89 50.05, 44.86 35.24, 74.18 -0.34 M21.95 67.32 C31.64 51.53, 43.26 39.36, 80.12 0.62 M21.36 65.82 C34.09 54.04, 44.96 39.48, 79.27 0.77 M26.27 67.46 C47.8 39.31, 70.39 15.96, 83.11 0.39 M27.49 67.06 C45.36 44.42, 65.49 20.88, 84.55 0.04 M32.61 67.67 C47.18 48.76, 66.07 29.54, 91.92 -1.37 M32.09 66.13 C43.64 52.48, 56.6 39.11, 89.94 0.92 M37.36 66.08 C51.09 52.95, 65.07 38.76, 95.79 -1.43 M37.24 65.92 C55.12 46.05, 72.3 27.01, 96.06 -1.28 M44.15 67.91 C64.33 41.43, 82.41 19.64, 99.25 -1.41 M42.42 67.29 C63.91 41.93, 85.77 17.31, 100.98 0.76 M49.11 67.53 C59.94 52.91, 75.13 36.76, 107.3 -1.84 M47.81 67.03 C67.56 44.58, 85.01 24.18, 105.43 0.24 M51.63 66.43 C64.13 52.19, 79.93 39.26, 112.21 -0.09 M53.03 65.86 C68.59 47.84, 85.96 29.63, 111.6 0.33 M59.61 67.22 C76.07 48.63, 91.62 31.2, 118.08 0.32 M58.39 66.44 C75.89 46.21, 92.61 25.64, 115.7 0.89 M64.17 67.64 C76.44 53.61, 88.01 38.68, 122.89 0.01 M63.64 67.37 C85 43.75, 104.24 19.9, 122.01 0.69 M68.96 66.55 C90.14 43.13, 112.81 17.71, 128.53 1.96 M69.2 65.19 C84.69 49.68, 97.88 33.83, 126.89 -0.28 M72.85 65.95 C96.53 43.08, 116.05 20.95, 133.39 -1.72 M74.94 66.38 C95.71 41.84, 116.51 19.07, 133.4 -0.12 M79.25 64.94 C97.36 42.81, 119.34 22.37, 139.1 0.22 M81.43 65.34 C97.3 47.72, 113.44 27.36, 138.03 1.03 M86.77 65.77 C103.62 45.02, 124.15 20.07, 143.8 0.13 M84.65 66.43 C104.94 43.06, 125.66 18.99, 143.98 -1.06 M90.57 67.78 C110.14 41.93, 134.36 19.27, 148.87 1.52 M91.28 65.92 C115.23 40.69, 136.55 14.77, 147.85 -0.64 M97.02 65.49 C106.16 52.98, 118.79 39.39, 151.55 1.73 M95.46 66.06 C112.61 45.67, 130.28 25.65, 152.3 0.69 M101.02 66.49 C120.74 47.55, 134.02 24.95, 153.69 4.29 M101.97 65 C115.75 48.28, 131.6 31.39, 152.78 6.3 M108.7 65.53 C119.05 48.1, 135.35 33.25, 151.56 11.04 M107.07 66.83 C117.54 52.04, 129.67 38.81, 153.37 12.72 M110.04 67.23 C126.88 49.76, 145.94 30.25, 152.67 18.96 M111.04 66.36 C127.14 48.34, 144.39 30.27, 153.54 18.4 M116.9 64.3 C124.69 59.29, 132.38 48.93, 151.76 24.16 M118.2 65.28 C130.65 51.57, 143.37 37.87, 154.24 23.77 M121.03 67.88 C128.67 58.77, 134.98 50.47, 151.47 32.63 M123 66.54 C132.58 53.82, 143.88 40.62, 152.42 31.92 M126.71 66.19 C134.8 57.91, 144.31 49.03, 152.25 38.48 M128.54 66.96 C134.3 58.88, 141.55 51.69, 153.12 36.89 M133.43 66.62 C138.94 63.14, 142.41 55.4, 154.51 42.21 M133.39 67.35 C137.46 61.9, 143.13 55.34, 153.44 43.9 M137.22 65.63 C141.93 61.94, 149.39 54.91, 155.12 49.42 M138.8 66.42 C142.49 60.8, 149.09 54.5, 153.19 48.12 M144.9 66.76 C146.04 63.96, 147.69 60.44, 154.02 56.44 M143.47 66.76 C146.74 62.5, 150.35 59.75, 153.58 54.78 M149.32 66.38 C149.75 65.43, 151.29 64, 152.75 62.05 M149.06 65.84 C149.98 65.16, 151 64.29, 153.42 61.49" stroke="#82c91e" stroke-width="0.5" fill="none"></path><path d="M0.04 -0.81 C44.83 0.56, 91.2 -1.58, 151.83 0.71 M0.07 0.53 C58.49 -0.33, 117.53 -2.16, 154.06 -0.03 M151.42 0.82 C151.46 18.2, 154.88 36.06, 154.93 63.84 M152.33 -0.68 C152.79 20.32, 152.41 39.95, 152.16 65.89 M154.18 66.49 C94.65 64.56, 33.67 64.44, 0.59 64.79 M152.34 65.1 C109.86 67.11, 65.58 66.56, 0.95 65.01 M-0.21 66.2 C0.88 45.54, -0.09 25.03, -0.62 1.92 M-0.34 65.22 C1.32 51.43, 0.26 35.38, 0.81 0.36" stroke="#000000" stroke-width="1" fill="none"></path></g><g transform="translate(301.5000000000002 1008.8750000000003) rotate(0 48.5 13)"><text x="48.5" y="18" font-family="Virgil, Segoe UI Emoji" font-size="20px" fill="#000000" text-anchor="middle" style="white-space: pre;" direction="ltr">connection</text></g><g stroke-linecap="round" transform="translate(299.6875000000002 810.6250000000001) rotate(0 41.5625 38.125)"><path d="M6.22 18.66 C6.22 18.66, 6.22 18.66, 6.22 18.66 M6.22 18.66 C6.22 18.66, 6.22 18.66, 6.22 18.66 M2.26 28.25 C7.97 20.74, 12.23 14.26, 21.09 4.66 M2.22 29.68 C8.34 22.71, 12.41 18.15, 23.34 5.59 M0.65 36.56 C8.62 26.73, 18.65 19.14, 31.09 5.47 M-0.15 38.94 C6.47 29.7, 12.04 22.97, 29.51 4.61 M2.73 43.02 C12.64 30.18, 21.65 17.43, 36.72 4 M1.23 42.05 C8.72 33.11, 16.87 23.21, 36.54 3.15 M4.65 46.5 C10.74 37.58, 17.92 28.04, 43.16 3.47 M2.61 45.78 C18.6 29.69, 32.89 13.24, 41.06 2.01 M3.26 50.44 C15.93 38.15, 24.64 28.82, 45.07 3.44 M5.77 49.69 C13.08 41.01, 21.54 29.94, 45.95 2.56 M7.55 56.16 C17.95 42.22, 28.42 27.77, 51.24 3.63 M7.45 55.4 C16.4 42.99, 25.73 32.58, 51.07 2.49 M6.65 58.87 C22.13 42.13, 35.05 26.77, 56.58 3.34 M9.3 58.59 C24.21 39.52, 40.41 20.96, 55.16 5.3 M9.78 63.64 C22.03 51.29, 33.5 34.52, 60.76 7.04 M9.92 63.01 C27.31 43.27, 43.48 25.43, 58.57 5.77 M12.28 63.16 C27.91 50.58, 38.4 36.38, 60.94 8.03 M12.83 64.19 C28.85 46.07, 46.22 27.9, 61.98 7.78 M17.01 69.26 C26.96 54.28, 40.42 41.86, 69.07 10.53 M15.86 67.03 C29.62 52.53, 42.99 36.57, 67.6 10.27 M18.24 71.89 C37.24 48.69, 53.8 29.92, 69.25 13.11 M19.09 70.7 C35.81 52.33, 51.61 33.47, 68.65 12.74 M21.71 71.63 C37.62 56.72, 49.77 43.5, 70.97 14.21 M22.87 73.2 C34.87 60.54, 45.21 46.67, 72.56 14.72 M25.94 74.17 C43.88 55.53, 61.81 33.47, 75.9 18.67 M27.14 73.83 C43.84 53.38, 61.35 32.21, 75.73 18.36 M29.57 75.08 C41.74 62.08, 55.16 49.8, 75.82 22.93 M30.78 75.95 C46.83 57.64, 61.9 39.29, 77.48 21.56 M37.41 74.07 C50.05 58.89, 62.1 45.01, 78.62 25.3 M35.64 75.25 C50.03 61.89, 61.63 47.4, 80.07 24.34 M40.34 74.46 C59.26 56.76, 73.1 41.14, 82.35 28.24 M42.48 75.23 C50.35 66.05, 59.29 55.82, 82.72 28.99 M47.43 75.71 C60.62 58.1, 73.17 45.23, 81.19 32.1 M47.02 75.7 C57.7 62.37, 69.07 50.35, 83.59 33.9 M53.15 77.64 C62.93 62.85, 73.84 52.15, 84.72 39.3 M51.23 77.02 C64.19 62.53, 75.83 50.17, 83.06 39.74 M61.37 71.91 C63.89 68.07, 70.34 59.85, 85.33 43.67 M61.29 71.6 C66.61 66.01, 71.08 59.9, 85.15 44.74" stroke="#fab005" stroke-width="0.5" fill="none"></path><path d="M45.65 1.03 C52.81 1.18, 60.64 4.66, 66.48 8.83 C72.32 13.01, 78.01 19.58, 80.69 26.09 C83.36 32.6, 84.43 41.24, 82.54 47.88 C80.65 54.53, 74.85 61.45, 69.34 65.96 C63.84 70.46, 56.83 73.56, 49.52 74.9 C42.2 76.25, 32.47 76.46, 25.45 74.04 C18.43 71.62, 11.79 65.98, 7.4 60.38 C3 54.78, -0.66 47.36, -0.91 40.46 C-1.15 33.55, 2.09 24.92, 5.95 18.96 C9.81 13.01, 15.17 7.73, 22.25 4.72 C29.34 1.7, 43.73 1.43, 48.48 0.89 C53.23 0.34, 50.88 0.81, 50.75 1.44 M22.39 3.54 C28.36 -0.13, 38.56 -1.7, 45.85 -1.12 C53.13 -0.54, 60.11 2.7, 66.11 7 C72.11 11.31, 79.16 17.98, 81.84 24.71 C84.53 31.44, 84.31 40.71, 82.21 47.39 C80.12 54.07, 74.8 60.17, 69.27 64.81 C63.75 69.45, 56.54 73.98, 49.05 75.25 C41.56 76.52, 31.24 74.72, 24.33 72.4 C17.42 70.08, 11.55 66.69, 7.59 61.33 C3.63 55.97, 1.09 47.1, 0.6 40.24 C0.1 33.37, 0.94 26.04, 4.6 20.13 C8.27 14.22, 19.66 7.27, 22.59 4.77 C25.51 2.27, 21.63 4.55, 22.16 5.12" stroke="#000000" stroke-width="1" fill="none"></path></g><g transform="translate(307.7500000000002 833.8750000000001) rotate(0 36 13)"><text x="36" y="18" font-family="Virgil, Segoe UI Emoji" font-size="20px" fill="#000000" text-anchor="middle" style="white-space: pre;" direction="ltr">connect</text></g><g stroke-linecap="round"><g transform="translate(115.26315521711558 673.125) rotate(0 86.11352098656357 87.0385683117999)"><path d="M-0.09 -0.34 C29.03 28.9, 144.9 145.27, 173.82 174.34 M-1.59 -1.57 C27.42 27.94, 143.76 146.21, 172.74 175.65" stroke="#000000" stroke-width="1" fill="none"></path></g><g transform="translate(115.26315521711558 673.125) rotate(0 86.11352098656357 87.0385683117999)"><path d="M145.08 162.35 C150.94 164.64, 156.68 169.83, 172.05 175.47 M144.88 162.46 C155.91 167.96, 166.72 173.62, 173.27 175.71" stroke="#000000" stroke-width="1" fill="none"></path></g><g transform="translate(115.26315521711558 673.125) rotate(0 86.11352098656357 87.0385683117999)"><path d="M159.71 147.95 C162.11 153.51, 164.52 161.97, 172.05 175.47 M159.51 148.07 C164.82 158.99, 170.02 170.17, 173.27 175.71" stroke="#000000" stroke-width="1" fill="none"></path></g></g><g stroke-linecap="round"><g transform="translate(346.5344829260498 896.6251379343522) rotate(0 0.28123625638579597 41.154719550775894)"><path d="M0.07 -0.7 C0.29 13.18, 1.66 69.08, 1.91 83.01 M-1.35 1.55 C-1.29 15.12, 0.91 68.12, 1.3 81.35" stroke="#000000" stroke-width="1" fill="none"></path></g><g transform="translate(346.5344829260498 896.6251379343522) rotate(0 0.28123625638579597 41.154719550775894)"><path d="M-11.12 54.59 C-4.61 63.75, -0.92 74.22, 1 81.54 M-10.35 52.55 C-7.51 60.41, -5.13 66.71, 0.35 81.19" stroke="#000000" stroke-width="1" fill="none"></path></g><g transform="translate(346.5344829260498 896.6251379343522) rotate(0 0.28123625638579597 41.154719550775894)"><path d="M9.39 53.86 C8.72 63.29, 5.22 74.02, 1 81.54 M10.16 51.82 C8.45 59.72, 6.28 66.18, 0.35 81.19" stroke="#000000" stroke-width="1" fill="none"></path></g></g><g stroke-linecap="round" transform="translate(538.4375000000007 10) rotate(0 41.5625 38.125)"><path d="M8.75 14.23 C8.75 14.23, 8.75 14.23, 8.75 14.23 M8.75 14.23 C8.75 14.23, 8.75 14.23, 8.75 14.23 M2.97 27.77 C9.78 21.58, 14.03 12.39, 22.24 4.01 M3.73 26.11 C8.58 19.59, 14.07 14.34, 22.92 3.42 M-1.03 34.29 C11.82 25.91, 19.58 15.1, 28.05 4.93 M1.24 36.81 C6.44 29.11, 12.89 21.16, 27.84 3.53 M2.97 41.91 C13.53 25.68, 25.28 13.1, 31.92 5.75 M0.92 41.62 C11.5 30.67, 19.16 18.88, 33.53 4.23 M2.63 44.14 C11.71 36.8, 21.3 27.58, 39.01 3.83 M3.29 44.66 C16.43 30.53, 30.02 14.52, 39.66 2.8 M5.47 48.35 C20.07 30.48, 35.41 15.19, 46.34 2.9 M4.89 50.73 C12.6 39.32, 21.92 30.02, 44.02 3.74 M7.5 55.02 C15.25 40.49, 29.18 25.89, 50.16 1.33 M4.99 54.54 C19.76 38.45, 34.29 23.45, 51.75 2.94 M8.64 59.03 C23.05 40.96, 40.95 20.44, 56.62 2.12 M6.92 58 C24.59 37.83, 41.99 19.09, 54.13 3.77 M8.64 61.09 C28.27 43.05, 42.93 22.72, 59.69 5.63 M10.04 61.72 C22.3 45.89, 37.03 30.65, 58.4 5.76 M14.52 65.08 C26.14 48.73, 39.98 30.45, 60.55 7.34 M13.16 64.23 C31.69 42.73, 49.01 23.9, 61.25 8.37 M16.48 65.49 C31.43 51.53, 44.74 32.67, 66.29 10.86 M16.47 65.51 C28.4 52.76, 42.18 38.35, 65.42 10.03 M18.6 68.93 C32.1 54.7, 45.73 38.85, 70.5 11.18 M20.2 68.47 C33.05 53.06, 47.52 35.24, 70.37 11.33 M22.81 70.14 C37.17 57.68, 50.02 39.67, 74.04 14.42 M22.67 70.97 C36.79 55.4, 51.14 39.8, 73 12.81 M26.27 74.48 C35.97 60.1, 47.75 48.72, 74.28 15.82 M27.56 72.27 C44.05 53.52, 61.15 34.24, 74.9 16.95 M30.01 73.69 C42.1 57.76, 55.96 47.45, 78.43 18.74 M32.64 72.87 C46.52 57.6, 60.48 39.86, 77.72 19.16 M36.29 72.38 C46.11 62.11, 59.12 47.95, 78.95 23.41 M37.09 74.92 C47.23 60.13, 60.06 47.37, 80.52 22.53 M39.22 77.05 C55 55.6, 71.03 39.13, 82.16 26.2 M40.13 75.28 C48.15 65.61, 57.76 56.42, 82.42 27.1 M46.12 75.06 C59.89 61.08, 73 45.33, 84.26 31.6 M44.37 76.48 C54.48 66.35, 62.69 55.88, 84.59 29.85 M48.89 79.4 C57.93 68, 69.43 57.9, 84.05 35.99 M47.19 79.5 C60.01 65.87, 71.15 52, 85 36.45 M57.15 74.14 C67 65.84, 75.79 54.18, 84.76 44.34 M55.89 75.22 C65.72 63.83, 74.19 54.27, 82.25 44" stroke="#fab005" stroke-width="0.5" fill="none"></path><path d="M26.18 1.77 C32.47 -1.07, 42.24 -0.05, 49.73 1.48 C57.22 3.01, 65.59 6.35, 71.15 10.94 C76.71 15.54, 81.43 22.36, 83.08 29.02 C84.73 35.68, 83.8 44.4, 81.06 50.9 C78.32 57.39, 72.6 63.78, 66.63 67.98 C60.66 72.17, 52.55 75.54, 45.24 76.06 C37.93 76.58, 29.41 74.45, 22.76 71.08 C16.11 67.71, 9.3 61.75, 5.36 55.84 C1.41 49.93, -1.39 42.5, -0.88 35.62 C-0.37 28.75, 3.18 20.41, 8.42 14.6 C13.67 8.8, 26.32 2.96, 30.59 0.8 C34.86 -1.37, 33.79 0.82, 34.02 1.59 M38.12 -0.17 C45.23 -1.57, 53.41 0.12, 59.92 3.03 C66.42 5.94, 73.07 11.41, 77.14 17.28 C81.22 23.15, 84.67 31.21, 84.38 38.25 C84.08 45.29, 79.66 53.44, 75.38 59.52 C71.1 65.59, 65.78 71.87, 58.71 74.7 C51.64 77.54, 40.76 77.78, 32.96 76.51 C25.16 75.24, 17.21 72.12, 11.94 67.08 C6.66 62.04, 2.88 53.18, 1.31 46.27 C-0.26 39.36, 0.32 31.91, 2.52 25.64 C4.72 19.37, 8.8 12.85, 14.53 8.65 C20.26 4.45, 33.29 1.86, 36.91 0.43 C40.52 -0.99, 36 -0.35, 36.22 0.11" stroke="#000000" stroke-width="1" fill="none"></path></g><g transform="translate(546.5000000000007 33.25) rotate(0 36 13)"><text x="36" y="18" font-family="Virgil, Segoe UI Emoji" font-size="20px" fill="#000000" text-anchor="middle" style="white-space: pre;" direction="ltr">connect</text></g><g stroke-linecap="round" transform="translate(511.2500000000002 825.0000000000001) rotate(0 62.187500000000114 28.75)"><path d="M0 0 C0 0, 0 0, 0 0 M0 0 C0 0, 0 0, 0 0 M-0.82 5.87 C1.21 4.67, 3.38 2.12, 4.54 0.48 M-0.13 6.18 C1.12 4.29, 2.9 2.49, 5.36 0.26 M-0.19 12.92 C3.83 8.45, 3.73 6.18, 11.55 0.32 M0.66 11.64 C2.42 8.9, 4.79 6.07, 10.19 0.4 M0.64 17.8 C5.03 12.18, 12.12 4.32, 14.74 0.04 M-0.29 18.66 C2.91 13.43, 6.89 10.11, 14.63 0.23 M2.14 24.13 C8.42 17.06, 14.17 7.78, 22.93 1.5 M-0.51 24.69 C8.3 14.3, 16.66 6.3, 20.7 -0.7 M-1.22 30.07 C8.39 23.62, 15.52 11.42, 28.01 -0.38 M-0.9 30.2 C8.53 19.31, 18.55 9.84, 25.68 0.87 M-0.81 37.21 C9.79 25.49, 21.29 14.01, 32.43 0.11 M0.43 37.56 C7.97 29.09, 13.42 19.94, 32.55 -0.9 M0.15 40.99 C9.66 30.77, 19.97 22.94, 36.1 1.53 M0.3 43.2 C10.01 31.76, 19.65 19.46, 36.61 1.25 M0.59 48.98 C12.22 36.8, 21.74 22.77, 41.71 1.33 M0.48 49.86 C16.63 30.74, 32.75 11.51, 42.69 -0.39 M2.17 55.64 C16.4 34.35, 35.93 15.54, 49.42 1.84 M0.33 55.34 C11.08 40.84, 24.37 27.68, 47.97 -0.43 M2.05 58.02 C17.22 40.56, 33.43 22.4, 54.16 0.26 M1.49 58.26 C20.28 36.19, 38.86 14.24, 53.17 -0.46 M6.8 57.57 C22.93 39.41, 40.05 22.41, 56.36 -1.34 M7.83 59.79 C20.48 45.27, 32.34 30.57, 57.31 1.03 M14.54 58.88 C26.71 39.35, 42.54 20.86, 63.19 -2.01 M13.57 58.44 C33.88 34.84, 52.98 12.36, 63.01 0.59 M16.83 58.91 C32.39 44.98, 45.59 27.41, 67.34 0.07 M17.19 59.27 C33.34 39.86, 51.83 19.11, 69.18 -0.16 M23.95 57.46 C40.23 41.66, 55.16 22.93, 76.22 1.61 M22.74 58.4 C43.92 34.8, 63.33 12.38, 74.28 -0.55 M27.71 59.26 C39.37 44.26, 54.39 31.84, 78.76 0.18 M28.55 59.01 C42.94 42.18, 57.86 24.74, 79.11 -0.81 M34.02 60.61 C48.58 41.48, 69.55 19.08, 86.63 0.22 M33.88 60.1 C53.64 37.23, 72.92 15.49, 86.02 -0.15 M36.87 59.72 C60.66 34.22, 78.17 12.57, 89.02 -0.93 M38.93 58.71 C58.34 36.39, 77.8 13.22, 89.67 -0.7 M44.46 58.92 C58.49 39.77, 74.12 25.4, 93.85 0.91 M42.86 60.23 C56.73 43.3, 71.3 27.69, 96.28 0.47 M47.71 59.39 C59.82 45.5, 71.58 33.33, 102.55 -1.16 M50.4 59.08 C69.42 35.64, 88.29 14.72, 100.39 -0.63 M55.04 59.23 C76.73 37.71, 93.43 11.65, 107.28 0.78 M54.58 58.76 C68.82 43.19, 84.28 25.25, 106.1 -0.97 M61.62 59.36 C71.76 45.56, 80.9 33.93, 109.73 -0.42 M59.99 59.82 C78.17 37.87, 97.42 16.55, 111.83 -0.41 M64.15 57.63 C83.73 41.45, 99.4 18.84, 117.66 -0.33 M65.56 59.89 C84.56 39.25, 102.64 17.02, 116.88 0.97 M70.03 58.73 C84.51 41.48, 97.74 23.02, 122.98 -0.62 M69.76 59.63 C84.72 42.46, 98.3 27.34, 121.52 -0.83 M76.2 60.23 C93.33 41.33, 107.69 21.82, 127.07 1.93 M75.37 58.81 C91.22 42.69, 105.15 26.08, 126.32 1.26 M82.33 58.58 C98.28 41.82, 112.62 19.51, 126.14 5.9 M80.75 58.22 C89.7 48.89, 100.28 37.5, 125.46 7.87 M85.6 59.11 C98.4 46.33, 106.74 35.15, 124.4 14.71 M86.55 59.73 C94.14 48.36, 103.59 38.25, 125.96 14.66 M93.93 58.02 C101.62 49.16, 111.61 33.35, 126.25 18.19 M93 58.28 C102.92 46.67, 114.81 31.81, 125.82 19.86 M96.76 60.37 C106.28 48.41, 118.03 34.96, 126.23 26.29 M96.64 59.87 C107.11 47.84, 116.79 34.47, 126.01 26.05 M102.24 58.13 C106.77 49.73, 114.95 45.35, 125.64 31.83 M103.57 59.53 C110.29 50.39, 117.72 40.86, 127.08 30.82 M108.07 60.11 C111.41 52.34, 116.5 47.12, 127.29 36.52 M108.2 59.4 C110.95 53.8, 116.46 48.88, 125.86 38.88 M114.6 58.04 C117.47 52.94, 121.28 49.99, 124.15 45.61 M112.54 58.66 C117.8 54.75, 122.03 49.38, 126.1 44.7 M119.27 59.87 C120.26 56.94, 122.03 53.2, 125.45 50.29 M118.56 59.36 C120.25 56.33, 121.78 54.92, 126.38 50.53" stroke="#fa5252" stroke-width="0.5" fill="none"></path><path d="M-1.61 1.43 C34.95 1.08, 71.39 -0.94, 126.11 1.24 M-0.12 0.97 C42.25 -1.32, 86.12 -0.83, 123.8 0.11 M122.51 1.61 C126.11 11.55, 122.77 26.15, 122.41 57.3 M123.75 0.36 C124 19.13, 125.1 36.1, 124.98 56.76 M125.63 58.39 C94.67 58.78, 66.76 57.57, -0.4 57.87 M123.41 57.89 C78.34 57.76, 32.13 58.66, -0.02 57.62 M-1.14 57.97 C1.62 44.22, -1.34 29.33, -1.34 1.04 M-0.48 57.24 C1.05 39.21, 1.24 20.33, 0.65 -0.06" stroke="#000000" stroke-width="1" fill="none"></path></g><g transform="translate(549.4375000000005 840.7500000000001) rotate(0 24 13)"><text x="24" y="18" font-family="Virgil, Segoe UI Emoji" font-size="20px" fill="#000000" text-anchor="middle" style="white-space: pre;" direction="ltr">error</text></g></svg>